<?xml version="1.0" encoding="UTF-8"?>
<svg version="1.1" xmlns="http://www.w3.org/2000/svg" width="1080" height="1080">
<path d="M0 0 C2.39434205 1.26299768 4.81009838 2.47808988 7.22998047 3.69140625 C27.87099785 14.12534773 45.38781649 27.17361271 62.14013672 43.12890625 C63.03853271 43.98427979 63.03853271 43.98427979 63.95507812 44.85693359 C72.84639087 53.38571023 80.8459239 62.20192093 88.14013672 72.12890625 C88.56101562 72.69432129 88.98189453 73.25973633 89.41552734 73.84228516 C130.09306055 128.62573713 146.97809958 195.994619 137.68798828 263.56494141 C133.4108029 291.389519 124.77622924 318.81284226 111.14257812 343.49755859 C108.17153776 348.92097849 105.64728686 354.50060623 103.19287109 360.17407227 C99.99403222 367.56314721 96.56315641 374.84194084 93.14013672 382.12890625 C92.54836924 383.39011233 91.95665302 384.65134246 91.36499023 385.91259766 C90.17762491 388.44308739 88.98972997 390.97332771 87.80151367 393.50341797 C81.01667534 407.95262331 74.28652872 422.4258701 67.61376953 436.92724609 C50.65516435 473.77203542 50.65516435 473.77203542 44.96435547 485.69140625 C40.83644869 494.34455375 36.80820969 503.01626998 33.03857422 511.83203125 C28.25133945 522.82148135 22.97025274 533.59426346 17.71588135 544.36557007 C12.0036509 556.08651542 6.44211629 567.85420787 1.17724609 579.78417969 C-5.52783988 594.94323 -12.43506984 610.00123928 -19.60693359 624.94482422 C-28.58387098 643.65260905 -37.350765 662.45681705 -45.83349609 681.39404297 C-49.86801969 690.39628328 -54.02290161 699.33728393 -58.31689453 708.21875 C-63.4265427 718.80262261 -68.37279127 729.43486278 -73.10986328 740.19140625 C-76.53563058 747.96837231 -80.02755675 755.6424872 -83.90673828 763.203125 C-88.89119461 773.07158837 -93.36140839 783.20666057 -97.99108887 793.24560547 C-99.44863652 796.40522962 -100.90832478 799.56386473 -102.36767578 802.72265625 C-105.20110724 808.85682737 -108.03148733 814.99240254 -110.85986328 821.12890625 C-111.84986328 821.12890625 -112.83986328 821.12890625 -113.85986328 821.12890625 C-118.40171613 811.4561548 -122.86796503 801.75048988 -127.30932617 792.03125 C-129.99362654 786.16832802 -132.69975444 780.31627867 -135.43408203 774.4765625 C-135.73688583 773.82986099 -136.03968964 773.18315948 -136.35166931 772.51686096 C-137.57654138 769.90161225 -138.80168383 767.2864904 -140.02719116 764.67153931 C-143.35304334 757.57040151 -146.64718453 750.46248401 -149.73486328 743.25390625 C-152.19153759 737.53599679 -154.90707813 732.01264454 -157.74023438 726.47705078 C-160.52607444 720.96015215 -162.96481234 715.3247859 -165.35986328 709.62890625 C-168.57837699 701.97811439 -172.02934993 694.53303665 -175.84033203 687.16015625 C-178.36745146 682.20239211 -180.65217778 677.132042 -182.96835327 672.07330322 C-184.61436883 668.48331811 -186.27120043 664.89831773 -187.92626953 661.3125 C-188.65994154 659.72218155 -189.3935835 658.13184923 -190.12719727 656.54150391 C-190.50174042 655.72965637 -190.87628357 654.91780884 -191.26217651 654.08135986 C-192.04687703 652.38035323 -192.83148132 650.6793022 -193.61599731 648.97821045 C-197.57672334 640.39048861 -201.53791981 631.80313027 -205.53955078 623.234375 C-211.20608003 611.09549136 -216.75446597 598.91946277 -222.12158203 586.64501953 C-226.44394419 576.7655616 -230.9857657 567.00858099 -235.67236328 557.296875 C-236.7142157 555.13680833 -237.75587755 552.97664974 -238.79736328 550.81640625 C-239.31903076 549.73496338 -239.84069824 548.65352051 -240.37817383 547.53930664 C-243.74006509 540.54174071 -246.95715439 533.49783597 -250.06274414 526.38354492 C-252.18559956 521.55364815 -254.46617271 516.82994996 -256.85986328 512.12890625 C-261.88613459 502.2495986 -266.28764917 492.10253038 -270.67236328 481.92578125 C-270.96747803 481.24386719 -271.26259277 480.56195312 -271.56665039 479.859375 C-272.35743673 478.02917277 -273.14212769 476.19634011 -273.92626953 474.36328125 C-275.55241985 470.69630764 -277.35827753 467.13005674 -279.16845703 463.55078125 C-283.40468103 455.16318578 -287.1777838 446.58238595 -290.96533203 437.984375 C-294.21087326 430.66815494 -297.62211389 423.48338272 -301.26416016 416.35913086 C-303.47964751 411.87426043 -305.4014147 407.28128005 -307.34033203 402.671875 C-309.14808649 398.45687938 -311.08373567 394.31024291 -313.04125977 390.16308594 C-315.57171989 384.78663323 -318.00025034 379.3673844 -320.42236328 373.94140625 C-323.72188002 366.57193424 -327.17271673 359.31362884 -330.85986328 352.12890625 C-333.57630733 346.81969366 -336.24895652 341.49087771 -338.85986328 336.12890625 C-339.18744629 335.45682129 -339.5150293 334.78473633 -339.85253906 334.09228516 C-350.09312057 312.79983541 -356.76005029 290.35505845 -360.85986328 267.12890625 C-361.09318359 265.85660156 -361.32650391 264.58429688 -361.56689453 263.2734375 C-365.57937179 239.57384159 -365.51969631 213.86809497 -361.85986328 190.12890625 C-361.73095703 189.27458008 -361.60205078 188.42025391 -361.46923828 187.54003906 C-353.67988886 137.39610215 -331.32430831 93.64322192 -298.14599609 55.64453125 C-296.92802253 54.20922755 -295.77812672 52.71695538 -294.63330078 51.22265625 C-294.04806641 50.53171875 -293.46283203 49.84078125 -292.85986328 49.12890625 C-292.19986328 49.12890625 -291.53986328 49.12890625 -290.85986328 49.12890625 C-290.36486328 47.64390625 -290.36486328 47.64390625 -289.85986328 46.12890625 C-288.39892578 44.65625 -288.39892578 44.65625 -286.48486328 43.06640625 C-283.23621705 40.32589625 -280.13081414 37.49111471 -277.04736328 34.56640625 C-265.16938268 23.77422443 -252.02348165 14.61139563 -237.81933594 7.16894531 C-235.84826382 6.12274954 -233.90640133 5.03432503 -231.96533203 3.93359375 C-208.15019967 -9.39496817 -181.70468171 -18.1908601 -154.85986328 -22.87109375 C-153.59505127 -23.09756592 -153.59505127 -23.09756592 -152.3046875 -23.32861328 C-101.53133028 -32.04632066 -45.50649185 -24.31798726 0 0 Z " fill="#EBE9E9" transform="translate(651.85986328125,150.87109375)"/>
<path d="M0 0 C2.39434205 1.26299768 4.81009838 2.47808988 7.22998047 3.69140625 C27.87099785 14.12534773 45.38781649 27.17361271 62.14013672 43.12890625 C63.03853271 43.98427979 63.03853271 43.98427979 63.95507812 44.85693359 C72.84639087 53.38571023 80.8459239 62.20192093 88.14013672 72.12890625 C88.56101562 72.69432129 88.98189453 73.25973633 89.41552734 73.84228516 C130.09306055 128.62573713 146.97809958 195.994619 137.68798828 263.56494141 C133.4108029 291.389519 124.77622924 318.81284226 111.14257812 343.49755859 C108.17153776 348.92097849 105.64728686 354.50060623 103.19287109 360.17407227 C99.99403222 367.56314721 96.56315641 374.84194084 93.14013672 382.12890625 C92.54836924 383.39011233 91.95665302 384.65134246 91.36499023 385.91259766 C90.17762491 388.44308739 88.98972997 390.97332771 87.80151367 393.50341797 C81.01667534 407.95262331 74.28652872 422.4258701 67.61376953 436.92724609 C50.65516435 473.77203542 50.65516435 473.77203542 44.96435547 485.69140625 C40.83644869 494.34455375 36.80820969 503.01626998 33.03857422 511.83203125 C28.25133945 522.82148135 22.97025274 533.59426346 17.71588135 544.36557007 C12.0036509 556.08651542 6.44211629 567.85420787 1.17724609 579.78417969 C-5.52783988 594.94323 -12.43506984 610.00123928 -19.60693359 624.94482422 C-28.58387098 643.65260905 -37.350765 662.45681705 -45.83349609 681.39404297 C-49.86801969 690.39628328 -54.02290161 699.33728393 -58.31689453 708.21875 C-63.4265427 718.80262261 -68.37279127 729.43486278 -73.10986328 740.19140625 C-76.53563058 747.96837231 -80.02755675 755.6424872 -83.90673828 763.203125 C-88.89119461 773.07158837 -93.36140839 783.20666057 -97.99108887 793.24560547 C-99.44863652 796.40522962 -100.90832478 799.56386473 -102.36767578 802.72265625 C-105.20110724 808.85682737 -108.03148733 814.99240254 -110.85986328 821.12890625 C-111.84986328 821.12890625 -112.83986328 821.12890625 -113.85986328 821.12890625 C-118.40171613 811.4561548 -122.86796503 801.75048988 -127.30932617 792.03125 C-129.99362654 786.16832802 -132.69975444 780.31627867 -135.43408203 774.4765625 C-135.73688583 773.82986099 -136.03968964 773.18315948 -136.35166931 772.51686096 C-137.57654138 769.90161225 -138.80168383 767.2864904 -140.02719116 764.67153931 C-143.35304334 757.57040151 -146.64718453 750.46248401 -149.73486328 743.25390625 C-152.19153759 737.53599679 -154.90707813 732.01264454 -157.74023438 726.47705078 C-160.52607444 720.96015215 -162.96481234 715.3247859 -165.35986328 709.62890625 C-168.57837699 701.97811439 -172.02934993 694.53303665 -175.84033203 687.16015625 C-178.36745146 682.20239211 -180.65217778 677.132042 -182.96835327 672.07330322 C-184.61436883 668.48331811 -186.27120043 664.89831773 -187.92626953 661.3125 C-188.65994154 659.72218155 -189.3935835 658.13184923 -190.12719727 656.54150391 C-190.50174042 655.72965637 -190.87628357 654.91780884 -191.26217651 654.08135986 C-192.04687703 652.38035323 -192.83148132 650.6793022 -193.61599731 648.97821045 C-197.57672334 640.39048861 -201.53791981 631.80313027 -205.53955078 623.234375 C-211.20608003 611.09549136 -216.75446597 598.91946277 -222.12158203 586.64501953 C-226.44394419 576.7655616 -230.9857657 567.00858099 -235.67236328 557.296875 C-236.7142157 555.13680833 -237.75587755 552.97664974 -238.79736328 550.81640625 C-239.31903076 549.73496338 -239.84069824 548.65352051 -240.37817383 547.53930664 C-243.74006509 540.54174071 -246.95715439 533.49783597 -250.06274414 526.38354492 C-252.18559956 521.55364815 -254.46617271 516.82994996 -256.85986328 512.12890625 C-261.88613459 502.2495986 -266.28764917 492.10253038 -270.67236328 481.92578125 C-270.96747803 481.24386719 -271.26259277 480.56195312 -271.56665039 479.859375 C-272.35743673 478.02917277 -273.14212769 476.19634011 -273.92626953 474.36328125 C-275.55241985 470.69630764 -277.35827753 467.13005674 -279.16845703 463.55078125 C-283.40468103 455.16318578 -287.1777838 446.58238595 -290.96533203 437.984375 C-294.21087326 430.66815494 -297.62211389 423.48338272 -301.26416016 416.35913086 C-303.47964751 411.87426043 -305.4014147 407.28128005 -307.34033203 402.671875 C-309.14808649 398.45687938 -311.08373567 394.31024291 -313.04125977 390.16308594 C-315.57171989 384.78663323 -318.00025034 379.3673844 -320.42236328 373.94140625 C-323.72188002 366.57193424 -327.17271673 359.31362884 -330.85986328 352.12890625 C-333.57630733 346.81969366 -336.24895652 341.49087771 -338.85986328 336.12890625 C-339.18744629 335.45682129 -339.5150293 334.78473633 -339.85253906 334.09228516 C-350.09312057 312.79983541 -356.76005029 290.35505845 -360.85986328 267.12890625 C-361.09318359 265.85660156 -361.32650391 264.58429688 -361.56689453 263.2734375 C-365.57937179 239.57384159 -365.51969631 213.86809497 -361.85986328 190.12890625 C-361.73095703 189.27458008 -361.60205078 188.42025391 -361.46923828 187.54003906 C-353.67988886 137.39610215 -331.32430831 93.64322192 -298.14599609 55.64453125 C-296.92802253 54.20922755 -295.77812672 52.71695538 -294.63330078 51.22265625 C-294.04806641 50.53171875 -293.46283203 49.84078125 -292.85986328 49.12890625 C-292.19986328 49.12890625 -291.53986328 49.12890625 -290.85986328 49.12890625 C-290.36486328 47.64390625 -290.36486328 47.64390625 -289.85986328 46.12890625 C-288.39892578 44.65625 -288.39892578 44.65625 -286.48486328 43.06640625 C-283.23621705 40.32589625 -280.13081414 37.49111471 -277.04736328 34.56640625 C-265.16938268 23.77422443 -252.02348165 14.61139563 -237.81933594 7.16894531 C-235.84826382 6.12274954 -233.90640133 5.03432503 -231.96533203 3.93359375 C-208.15019967 -9.39496817 -181.70468171 -18.1908601 -154.85986328 -22.87109375 C-153.59505127 -23.09756592 -153.59505127 -23.09756592 -152.3046875 -23.32861328 C-101.53133028 -32.04632066 -45.50649185 -24.31798726 0 0 Z M-126.85986328 -2.87109375 C-131.98584639 -2.16134224 -137.1245654 -1.80095791 -142.29736328 -1.93359375 C-150.03942511 -2.01684173 -157.56661304 -0.6158645 -164.69604492 2.37231445 C-167.09293656 3.21040169 -169.37921492 3.61067757 -171.88720703 4.00390625 C-189.38641141 7.07724842 -205.59816178 14.25509218 -220.85986328 23.12890625 C-221.7006543 23.60908203 -222.54144531 24.08925781 -223.40771484 24.58398438 C-234.17146407 30.74732566 -244.29567417 37.22005756 -253.85986328 45.12890625 C-255.06296862 46.10419092 -256.26609433 47.07945046 -257.46923828 48.0546875 C-258.66328341 49.03613631 -259.85602678 50.01917132 -261.04736328 51.00390625 C-261.60093506 51.45644775 -262.15450684 51.90898926 -262.72485352 52.37524414 C-265.54608498 54.75206844 -267.39568488 56.74536444 -268.85986328 60.12890625 C-270.17519739 60.83041777 -271.5110392 61.4941655 -272.85986328 62.12890625 C-275.1105143 64.04557546 -275.1105143 64.04557546 -276.85986328 66.12890625 C-276.85986328 66.78890625 -276.85986328 67.44890625 -276.85986328 68.12890625 C-277.43994141 68.37769531 -278.02001953 68.62648438 -278.61767578 68.8828125 C-294.50474786 77.71203897 -306.21983125 102.3825827 -314.54199219 117.703125 C-315.77254233 119.96817618 -317.02222097 122.22143176 -318.27783203 124.47265625 C-321.7964806 130.84165882 -324.9483789 137.07222332 -326.85986328 144.12890625 C-327.25173828 145.34578125 -327.64361328 146.56265625 -328.04736328 147.81640625 C-328.84355494 151.06241841 -329.02211297 153.80278762 -328.85986328 157.12890625 C-329.51986328 157.12890625 -330.17986328 157.12890625 -330.85986328 157.12890625 C-332.11176166 159.88308268 -332.87614081 162.24517429 -333.29736328 165.25390625 C-333.75991948 168.44040453 -334.41164994 171.23855238 -335.29736328 174.31640625 C-336.65483436 179.14663099 -337.61198484 183.93663576 -338.35668945 188.89672852 C-338.66842223 190.89916918 -339.00482638 192.89814262 -339.38012695 194.88964844 C-341.004188 203.93462926 -341.16626594 212.79156139 -341.12060547 221.94824219 C-341.10990878 224.49308249 -341.12054726 227.03721257 -341.13330078 229.58203125 C-341.69834857 245.76903248 -341.69834857 245.76903248 -337.85986328 261.12890625 C-337.5399405 263.10370233 -337.25358505 265.08399389 -336.98486328 267.06640625 C-336.20431677 272.35548261 -335.07233911 277.36391407 -333.58251953 282.4921875 C-332.85408195 285.15000031 -332.30534141 287.79602282 -331.79736328 290.50390625 C-331.15215426 293.90887486 -330.33447679 296.96902015 -328.85986328 300.12890625 C-328.19986328 300.12890625 -327.53986328 300.12890625 -326.85986328 300.12890625 C-326.90111328 300.85078125 -326.94236328 301.57265625 -326.98486328 302.31640625 C-326.84890026 305.37557423 -326.04981544 307.32901882 -324.85986328 310.12890625 C-324.4911524 311.78810521 -324.14704654 313.45367055 -323.85986328 315.12890625 C-323.19986328 315.12890625 -322.53986328 315.12890625 -321.85986328 315.12890625 C-321.48861328 316.33546875 -321.48861328 316.33546875 -321.10986328 317.56640625 C-313.0440619 340.5539402 -297.37618888 366.03264753 -278.85986328 382.12890625 C-278.19986328 382.12890625 -277.53986328 382.12890625 -276.85986328 382.12890625 C-276.61236328 382.89203125 -276.36486328 383.65515625 -276.10986328 384.44140625 C-274.73855656 387.3897157 -273.62475538 388.48725157 -270.85986328 390.12890625 C-270.19986328 390.12890625 -269.53986328 390.12890625 -268.85986328 390.12890625 C-268.62267578 390.69738281 -268.38548828 391.26585937 -268.14111328 391.8515625 C-256.09446742 413.26374097 -215.67639827 433.38765728 -192.85986328 440.12890625 C-189.44006042 440.46968817 -189.44006042 440.46968817 -186.85986328 440.12890625 C-186.85986328 440.78890625 -186.85986328 441.44890625 -186.85986328 442.12890625 C-177.59853126 445.62104174 -177.59853126 445.62104174 -167.85986328 446.12890625 C-167.85986328 446.78890625 -167.85986328 447.44890625 -167.85986328 448.12890625 C-161.42957787 449.45278854 -155.43037988 450.37685027 -148.85986328 450.12890625 C-148.85986328 450.78890625 -148.85986328 451.44890625 -148.85986328 452.12890625 C-136.85091215 453.95735645 -125.11827616 454.48907011 -112.98486328 454.44140625 C-112.09498718 454.44058044 -111.20511108 454.43975464 -110.28826904 454.43890381 C-85.53502597 455.66746025 -85.53502597 455.66746025 -62.85986328 449.12890625 C-60.53598381 448.73502837 -58.20192579 448.3940454 -55.85986328 448.12890625 C-55.85986328 447.46890625 -55.85986328 446.80890625 -55.85986328 446.12890625 C-54.82861328 446.17015625 -53.79736328 446.21140625 -52.73486328 446.25390625 C-48.99156701 446.13315476 -46.32251781 445.48018607 -42.85986328 444.12890625 C-42.85986328 443.46890625 -42.85986328 442.80890625 -42.85986328 442.12890625 C-40.87986328 442.12890625 -38.89986328 442.12890625 -36.85986328 442.12890625 C-36.85986328 441.46890625 -36.85986328 440.80890625 -36.85986328 440.12890625 C-35.91111328 440.04640625 -34.96236328 439.96390625 -33.98486328 439.87890625 C-28.95097794 439.15832992 -24.49885119 437.1345651 -19.85986328 435.12890625 C-19.18568359 434.85304688 -18.51150391 434.5771875 -17.81689453 434.29296875 C5.01515291 424.66552902 27.90295294 410.09150257 45.14013672 392.12890625 C45.14013672 391.46890625 45.14013672 390.80890625 45.14013672 390.12890625 C45.90326172 389.88140625 46.66638672 389.63390625 47.45263672 389.37890625 C50.40094617 388.00759953 51.49848204 386.89379835 53.14013672 384.12890625 C53.14013672 383.46890625 53.14013672 382.80890625 53.14013672 382.12890625 C53.70861328 381.89171875 54.27708984 381.65453125 54.86279297 381.41015625 C73.67622125 370.82558596 88.09239151 340.11601074 96.14013672 321.12890625 C96.80680339 319.79557292 97.47347005 318.46223958 98.14013672 317.12890625 C99.03456885 315.15844517 99.90817684 313.17845065 100.76513672 311.19140625 C101.21115234 310.17175781 101.65716797 309.15210938 102.11669922 308.1015625 C103.11244794 305.20933052 103.35191078 303.15504608 103.14013672 300.12890625 C103.80013672 300.12890625 104.46013672 300.12890625 105.14013672 300.12890625 C107.38841724 295.63234521 107.30695944 292.05017659 107.14013672 287.12890625 C107.80013672 287.12890625 108.46013672 287.12890625 109.14013672 287.12890625 C109.26388672 286.22140625 109.38763672 285.31390625 109.51513672 284.37890625 C110.14013672 281.12890625 110.14013672 281.12890625 111.11669922 279.41796875 C112.580239 276.14455534 112.79037969 272.78386143 113.14013672 269.25390625 C113.52151957 265.44714037 113.90269488 261.82824665 115.14013672 258.18359375 C117.35508337 251.41762389 117.2855685 244.21784606 117.23779297 237.15625 C117.23637802 236.34773087 117.23496307 235.53921173 117.23350525 234.70619202 C117.22797086 232.15955683 117.21543132 229.61301422 117.20263672 227.06640625 C117.19761322 225.32487107 117.19305181 223.5833345 117.18896484 221.84179688 C117.17802305 217.60413177 117.16080497 213.36653462 117.14013672 209.12890625 C116.48013672 209.12890625 115.82013672 209.12890625 115.14013672 209.12890625 C115.14537354 208.53988525 115.15061035 207.95086426 115.15600586 207.34399414 C115.17703475 204.62647608 115.18987818 201.90897524 115.20263672 199.19140625 C115.21101563 198.26521484 115.21939453 197.33902344 115.22802734 196.38476562 C115.64588556 185.7597342 115.64588556 185.7597342 112.14013672 176.12890625 C111.58440446 174.45893083 111.090579 172.76780509 110.64013672 171.06640625 C110.25341797 169.60654297 110.25341797 169.60654297 109.85888672 168.1171875 C109.1904644 165.33814906 108.64611217 162.56628648 108.14013672 159.75390625 C107.4200074 155.93121978 106.18387074 153.44997404 104.14013672 150.12890625 C103.78763137 148.72166047 103.47960155 147.30294669 103.20263672 145.87890625 C99.69633233 128.3888567 87.64925436 109.33041657 77.14013672 95.12890625 C76.44791016 94.16726562 75.75568359 93.205625 75.04248047 92.21484375 C70.97917799 86.66811339 66.72001053 81.29196251 62.32763672 76.00390625 C61.87155029 75.44711182 61.41546387 74.89031738 60.94555664 74.31665039 C58.5414755 71.46692605 56.52400614 69.65735064 53.14013672 68.12890625 C52.45881221 66.46817776 51.79271545 64.80113925 51.14013672 63.12890625 C48.52354576 60.67542468 48.52354576 60.67542468 45.14013672 60.12890625 C44.77275391 59.26265625 44.77275391 59.26265625 44.39794922 58.37890625 C34.40230576 40.49850057 5.53695957 27.22141649 -11.92236328 18.37890625 C-12.58300781 18.04342773 -13.24365234 17.70794922 -13.92431641 17.36230469 C-16.77045777 15.96634012 -18.64609542 15.12890625 -21.85986328 15.12890625 C-21.85986328 14.46890625 -21.85986328 13.80890625 -21.85986328 13.12890625 C-22.71257812 12.96455078 -22.71257812 12.96455078 -23.58251953 12.796875 C-28.67014387 11.75217084 -33.11048987 10.28771235 -37.85986328 8.12890625 C-45.03682961 5.23293738 -52.40983177 3.20349225 -59.85986328 1.12890625 C-61.07029297 0.77183594 -62.28072266 0.41476563 -63.52783203 0.046875 C-70.35480983 -1.83394538 -77.02709797 -1.91319496 -84.07080078 -1.84375 C-95.01986328 -1.95109375 -95.01986328 -1.95109375 -98.85986328 -3.87109375 C-100.79544006 -3.96809221 -102.73435865 -4.00185576 -104.67236328 -4.00390625 C-106.40873047 -4.00583984 -106.40873047 -4.00583984 -108.18017578 -4.0078125 C-110.00162109 -4.00201172 -110.00162109 -4.00201172 -111.85986328 -3.99609375 C-113.07416016 -3.99996094 -114.28845703 -4.00382812 -115.53955078 -4.0078125 C-116.69712891 -4.00652344 -117.85470703 -4.00523437 -119.04736328 -4.00390625 C-120.11341797 -4.00277832 -121.17947266 -4.00165039 -122.27783203 -4.00048828 C-124.84668468 -4.04513573 -124.84668468 -4.04513573 -126.85986328 -2.87109375 Z " fill="#020202" transform="translate(651.85986328125,150.87109375)"/>
<path d="M0 0 C0.65002912 -0.00467997 1.30005824 -0.00935994 1.96978521 -0.01418173 C4.14010076 -0.02611349 6.30978271 -0.01668219 8.48010254 -0.00723267 C10.03921374 -0.0112992 11.59832206 -0.01664154 13.15742493 -0.02316284 C17.38674048 -0.03683262 21.61583635 -0.03153923 25.84515572 -0.02202559 C30.27242752 -0.01442724 34.69968058 -0.02147509 39.12695312 -0.02618408 C46.56159846 -0.03164112 53.99615437 -0.02445138 61.43078613 -0.01016235 C70.02469915 0.00616408 78.61839865 0.00087553 87.2123065 -0.01564157 C94.59248542 -0.02925791 101.97260007 -0.03117538 109.35278749 -0.02332556 C113.75994142 -0.01864986 118.16699499 -0.01802137 122.57414246 -0.02793503 C126.7176023 -0.03660457 130.86078701 -0.03058311 135.00421715 -0.01325226 C136.52437063 -0.00928734 138.0445473 -0.01042158 139.56469154 -0.01704025 C141.64085182 -0.02524601 143.71613203 -0.01494719 145.79223633 0 C147.53436275 0.00169662 147.53436275 0.00169662 149.31168365 0.00342751 C153.89588463 0.56451682 156.45115698 2.44518735 159.68023682 5.64283752 C161.82793598 9.07002313 161.88010881 11.16321079 161.85021973 15.19076538 C161.85080383 15.85473831 161.85138794 16.51871124 161.85198975 17.20280457 C161.84921684 19.38382394 161.81816622 21.56345346 161.78674316 23.74423218 C161.77927786 25.26165521 161.77358629 26.77908791 161.76959229 28.29652405 C161.75435848 32.28011948 161.71509697 36.26312663 161.67077637 40.24649048 C161.62977449 44.31531823 161.61157083 48.38424153 161.59143066 52.45321655 C161.54859976 60.42939724 161.48037666 68.40510079 161.39611816 76.38095093 C162.38504059 76.37206848 163.37396301 76.36318604 164.39285278 76.35403442 C173.72095453 76.27288238 183.04898448 76.21295378 192.37735939 76.17370224 C197.17298746 76.15284402 201.96833012 76.12455865 206.76379395 76.07919312 C211.39332248 76.03567235 216.02257681 76.01180054 220.65229416 76.00144196 C222.416928 75.99406176 224.18154715 75.97964982 225.946064 75.9580307 C228.42144225 75.92891331 230.89569335 75.92499832 233.37121582 75.92684937 C234.09770325 75.91246826 234.82419067 75.89808716 235.57269287 75.88327026 C240.65547194 75.92428768 243.53916278 77.10100726 247.39611816 80.38095093 C250.7448067 84.67860906 250.82329806 88.66665691 250.78379822 93.91426086 C250.79187652 95.20063795 250.79187652 95.20063795 250.80011803 96.51300246 C250.81442192 99.38571667 250.80728788 102.25797167 250.8001709 105.13070679 C250.80587319 107.19065217 250.8128369 109.25059439 250.82096863 111.31053162 C250.83893062 116.90554675 250.83772592 122.50040531 250.83202624 128.09544063 C250.82893882 132.76506927 250.83502186 137.43466764 250.84106499 142.10429198 C250.85511857 153.11963287 250.85354195 164.13489623 250.84216309 175.15023804 C250.83068043 186.51730502 250.84475824 197.88413611 250.87155956 209.25117201 C250.89370463 219.00841527 250.90035664 228.76558443 250.89448315 238.52285105 C250.8911096 244.35137585 250.89355516 250.17974941 250.91073418 256.0082531 C250.92618216 261.48877955 250.92227142 266.96895609 250.90342903 272.44946861 C250.89973724 274.46103599 250.90286873 276.47262918 250.91331482 278.48417282 C250.92648595 281.23007276 250.91501169 283.9748077 250.89732361 286.72065735 C250.90692861 287.51686884 250.91653362 288.31308034 250.92642969 289.13341945 C250.85775594 294.31406734 249.83375679 297.28104326 246.39611816 301.38095093 C240.48441253 304.98511402 234.83085645 304.79122379 228.0447998 304.7215271 C226.3607756 304.72218422 226.3607756 304.72218422 224.64273071 304.72285461 C220.94706586 304.72077146 217.25185963 304.69746191 213.55627441 304.67391968 C210.98795316 304.66832206 208.4196287 304.66405275 205.8513031 304.66105652 C199.79177794 304.6507885 193.73244089 304.62716561 187.67298645 304.59700805 C180.77092296 304.56340688 173.86885142 304.54696371 166.96672642 304.53192174 C152.77643607 304.50061417 138.58628294 304.44788951 124.39611816 304.38095093 C124.39253563 303.49388033 124.39253563 303.49388033 124.38888073 302.58888912 C124.32967963 288.18250368 124.25409693 273.77627257 124.16040325 259.37007046 C124.11548594 252.40325371 124.07606202 245.43648761 124.04968262 238.46957397 C124.02420772 231.74565454 123.98327578 225.0219912 123.9329319 218.29820442 C123.91625175 215.73342764 123.90474465 213.16861181 123.89850426 210.60378838 C123.88887607 207.01030714 123.86083038 203.41740487 123.82849121 199.82406616 C123.8299263 198.76454742 123.83136139 197.70502869 123.83283997 196.61340332 C123.7591357 190.81927156 123.49471152 186.36476134 120.39611816 181.38095093 C115.87620429 178.14420141 111.4923353 177.94008039 106.09924316 177.96102905 C105.28870483 177.95255951 104.4781665 177.94408997 103.64306641 177.93536377 C100.97725521 177.91206078 98.31202328 177.91096984 95.64611816 177.91220093 C93.78576427 177.90509635 91.92541257 177.89739691 90.06506348 177.88912964 C86.17144676 177.87570101 82.27803277 177.87410926 78.38439941 177.87997437 C73.40079716 177.88587525 68.4181675 177.85525546 63.43475342 177.81485748 C59.59479554 177.788982 55.7550721 177.78610281 51.91503906 177.78974915 C50.07785595 177.7880584 48.24066196 177.77842022 46.40356445 177.76060486 C43.83271478 177.73841252 41.26383737 177.74811634 38.69299316 177.76571655 C37.93852905 177.75245331 37.18406494 177.73919006 36.40673828 177.7255249 C30.63442458 177.8171215 28.29217644 179.41964676 24.39611816 183.38095093 C23.1762575 185.82067226 23.25800095 187.41114463 23.23789978 190.13916016 C23.22811096 191.14319382 23.21832214 192.14722748 23.20823669 193.1816864 C23.20248123 194.28723373 23.19672577 195.39278107 23.1907959 196.53182983 C23.1808963 197.69279678 23.1709967 198.85376373 23.16079712 200.0499115 C23.12911018 203.90242445 23.10439625 207.75494975 23.07971191 211.60751343 C23.05914859 214.27266879 23.03820065 216.93781833 23.01673889 219.60296631 C22.96679353 225.91045841 22.92186156 232.21797594 22.87871653 238.52551782 C22.82935988 245.70562708 22.77443593 252.88569034 22.71903694 260.06575513 C22.60518861 274.83744344 22.49835578 289.60917759 22.39611816 304.38095093 C7.24490698 304.47445594 -7.90629087 304.54496031 -23.05772591 304.58819962 C-30.0930662 304.60881144 -37.12822704 304.63690533 -44.16345215 304.68270874 C-50.95209327 304.72688562 -57.74054777 304.75008507 -64.52932358 304.7604599 C-67.12010509 304.76785403 -69.71087633 304.78229287 -72.30157852 304.80387115 C-75.92877553 304.83288262 -79.55520086 304.8369077 -83.18249512 304.83505249 C-84.79119225 304.85662415 -84.79119225 304.85662415 -86.43238831 304.87863159 C-93.36780764 304.84021582 -97.16315685 303.76917458 -102.23425579 298.77545452 C-104.25099412 295.24961095 -104.02075828 291.80022289 -103.99156189 287.84727478 C-103.99694743 286.97758826 -104.00233297 286.10790173 -104.0078817 285.21186107 C-104.02221052 282.29225112 -104.01504542 279.37309142 -104.00793457 276.45346069 C-104.01363556 274.36248407 -104.02059876 272.27151057 -104.0287323 270.18054199 C-104.04670874 264.49669541 -104.04548688 258.81300282 -104.03978992 253.12913632 C-104.03670455 248.38738924 -104.04278324 243.64567202 -104.04882866 238.90392917 C-104.06288701 227.71940542 -104.06130169 216.53495802 -104.04992676 205.35043335 C-104.03844383 193.80443699 -104.05252129 182.25867286 -104.07932323 170.7127071 C-104.10146049 160.8060319 -104.10812207 150.8994297 -104.10224682 140.99273151 C-104.09887137 135.07312171 -104.10133137 129.15366079 -104.11849785 123.23407173 C-104.13393339 117.66820273 -104.130049 112.10267848 -104.1111927 106.53682327 C-104.10749744 104.49258555 -104.11064245 102.44832247 -104.12107849 100.40410805 C-104.1342259 97.61620831 -104.12279647 94.82946038 -104.10508728 92.04161072 C-104.11469229 91.23013142 -104.12429729 90.41865212 -104.13419336 89.58258253 C-104.06820401 84.54341722 -103.21295943 81.92234448 -99.60388184 78.38095093 C-96.03231446 75.7502298 -92.06702968 76.1121394 -87.80603027 76.15390015 C-87.02516052 76.15360809 -86.24429077 76.15331604 -85.4397583 76.15301514 C-82.86414395 76.15440613 -80.28882052 76.16995641 -77.71325684 76.18563843 C-75.92535561 76.18936938 -74.13745234 76.19221596 -72.34954834 76.19421387 C-67.64772886 76.20184386 -62.94603328 76.22148693 -58.2442627 76.24362183 C-53.44488196 76.26409389 -48.64548117 76.2732185 -43.84606934 76.28329468 C-34.43195245 76.3047334 -25.01792745 76.33886173 -15.60388184 76.38095093 C-15.61276428 75.55489349 -15.62164673 74.72883606 -15.63079834 73.87774658 C-15.7110585 66.08011689 -15.77190413 58.2826266 -15.81113052 50.48467827 C-15.83197554 46.47596441 -15.8602359 42.46759282 -15.90563965 38.45907593 C-15.94920883 34.58815284 -15.97304215 30.71755827 -15.98339081 26.84640884 C-15.99076244 25.37203935 -16.00515775 23.89768715 -16.02680206 22.4234581 C-16.05598541 20.35274634 -16.05983193 18.28337933 -16.0579834 16.2124939 C-16.06686584 15.03556976 -16.07574829 13.85864563 -16.0848999 12.64605713 C-15.48846131 8.59748706 -14.20204437 6.52102506 -11.60388184 3.38095093 C-7.66861767 0.47148014 -4.85111286 0.00472438 0 0 Z " fill="#010101" transform="translate(466.6038818359375,213.61904907226563)"/>
<path d="M0 0 C8.58 0 17.16 0 26 0 C26 8.25 26 16.5 26 25 C34.25 25 42.5 25 51 25 C51 33.58 51 42.16 51 51 C42.75 51 34.5 51 26 51 C26 59.25 26 67.5 26 76 C17.42 76 8.84 76 0 76 C0 67.42 0 58.84 0 50 C-8.25 50 -16.5 50 -25 50 C-25 41.75 -25 33.5 -25 25 C-16.75 25 -8.5 25 0 25 C0 16.75 0 8.5 0 0 Z " fill="#E9E7E7" transform="translate(527,252)"/>
<path d="M0 0 C12.87 0 25.74 0 39 0 C39 8.58 39 17.16 39 26 C26.13 26 13.26 26 0 26 C0 17.42 0 8.84 0 0 Z " fill="#E2E0E0" transform="translate(400,391)"/>
<path d="M0 0 C12.87 0 25.74 0 39 0 C39 8.58 39 17.16 39 26 C26.13 26 13.26 26 0 26 C0 17.42 0 8.84 0 0 Z " fill="#E2E0E0" transform="translate(400,340)"/>
<path d="M0 0 C12.54 0 25.08 0 38 0 C38 8.25 38 16.5 38 25 C25.46 25 12.92 25 0 25 C0 16.75 0 8.5 0 0 Z " fill="#ECEAEA" transform="translate(641,442)"/>
<path d="M0 0 C12.54 0 25.08 0 38 0 C38 8.25 38 16.5 38 25 C25.46 25 12.92 25 0 25 C0 16.75 0 8.5 0 0 Z " fill="#EAE8E8" transform="translate(400,442)"/>
<path d="M0 0 C12.54 0 25.08 0 38 0 C38 8.25 38 16.5 38 25 C25.46 25 12.92 25 0 25 C0 16.75 0 8.5 0 0 Z " fill="#EAE8E8" transform="translate(641,391)"/>
<path d="M0 0 C12.54 0 25.08 0 38 0 C38 8.25 38 16.5 38 25 C25.46 25 12.92 25 0 25 C0 16.75 0 8.5 0 0 Z " fill="#EAE8E8" transform="translate(641,341)"/>
<path d="M0 0 C0.66 0.33 1.32 0.66 2 1 C-5.26 8.26 -12.52 15.52 -20 23 C-20.66 22.67 -21.32 22.34 -22 22 C-21.04882866 20.8274869 -20.08882991 19.66212985 -19.125 18.5 C-18.59132813 17.8503125 -18.05765625 17.200625 -17.5078125 16.53125 C-17.01023437 16.0259375 -16.51265625 15.520625 -16 15 C-15.34 15 -14.68 15 -14 15 C-13.67 14.01 -13.34 13.02 -13 12 C-11.328125 10.3515625 -11.328125 10.3515625 -9.25 8.625 C-6.00331159 5.87465784 -2.96094821 3.05347784 0 0 Z " fill="#636363" transform="translate(375,185)"/>
<path d="M0 0 C0.66 0.33 1.32 0.66 2 1 C1.24172908 2.17487036 0.46792245 3.33972592 -0.3125 4.5 C-0.74175781 5.1496875 -1.17101562 5.799375 -1.61328125 6.46875 C-2.07089844 6.9740625 -2.52851563 7.479375 -3 8 C-3.99 8 -4.98 8 -6 8 C-4.55746343 4.63408134 -2.66735273 2.48952921 0 0 Z " fill="#B7B6B6" transform="translate(372,220)"/>
</svg>
