<?xml version="1.0" encoding="UTF-8"?>
<svg version="1.1" xmlns="http://www.w3.org/2000/svg" width="1080" height="1080">
<path d="M0 0 C2.39434205 1.26299768 4.81009838 2.47808988 7.22998047 3.69140625 C27.87099785 14.12534773 45.38781649 27.17361271 62.14013672 43.12890625 C63.03853271 43.98427979 63.03853271 43.98427979 63.95507812 44.85693359 C72.84798239 53.38723686 80.83744391 62.20661587 88.14013672 72.12890625 C88.55569824 72.68368652 88.97125977 73.2384668 89.39941406 73.81005859 C130.3554414 128.5618004 146.57058003 195.88802273 137.68798828 263.43457031 C133.55795004 291.28472122 124.77247466 318.8196402 111.14257812 343.49755859 C108.17153776 348.92097849 105.64728686 354.50060623 103.19287109 360.17407227 C99.99403222 367.56314721 96.56315641 374.84194084 93.14013672 382.12890625 C92.54836924 383.39011233 91.95665302 384.65134246 91.36499023 385.91259766 C90.17762491 388.44308739 88.98972997 390.97332771 87.80151367 393.50341797 C81.01667534 407.95262331 74.28652872 422.4258701 67.61376953 436.92724609 C50.65516435 473.77203542 50.65516435 473.77203542 44.96435547 485.69140625 C40.83644869 494.34455375 36.80820969 503.01626998 33.03857422 511.83203125 C28.25133945 522.82148135 22.97025274 533.59426346 17.71588135 544.36557007 C12.0036509 556.08651542 6.44211629 567.85420787 1.17724609 579.78417969 C-5.52783988 594.94323 -12.43506984 610.00123928 -19.60693359 624.94482422 C-28.58387098 643.65260905 -37.350765 662.45681705 -45.83349609 681.39404297 C-49.86801969 690.39628328 -54.02290161 699.33728393 -58.31689453 708.21875 C-63.4265427 718.80262261 -68.37279127 729.43486278 -73.10986328 740.19140625 C-76.53563058 747.96837231 -80.02755675 755.6424872 -83.90673828 763.203125 C-88.89119461 773.07158837 -93.36140839 783.20666057 -97.99108887 793.24560547 C-99.44863652 796.40522962 -100.90832478 799.56386473 -102.36767578 802.72265625 C-105.20110724 808.85682737 -108.03148733 814.99240254 -110.85986328 821.12890625 C-111.84986328 821.12890625 -112.83986328 821.12890625 -113.85986328 821.12890625 C-118.40171613 811.4561548 -122.86796503 801.75048988 -127.30932617 792.03125 C-129.99362654 786.16832802 -132.69975444 780.31627867 -135.43408203 774.4765625 C-135.73688583 773.82986099 -136.03968964 773.18315948 -136.35166931 772.51686096 C-137.57654138 769.90161225 -138.80168383 767.2864904 -140.02719116 764.67153931 C-143.35304334 757.57040151 -146.64718453 750.46248401 -149.73486328 743.25390625 C-152.19153759 737.53599679 -154.90707813 732.01264454 -157.74023438 726.47705078 C-160.52607444 720.96015215 -162.96481234 715.3247859 -165.35986328 709.62890625 C-168.57837699 701.97811439 -172.02934993 694.53303665 -175.84033203 687.16015625 C-178.36745146 682.20239211 -180.65217778 677.132042 -182.96835327 672.07330322 C-184.61436883 668.48331811 -186.27120043 664.89831773 -187.92626953 661.3125 C-188.65994154 659.72218155 -189.3935835 658.13184923 -190.12719727 656.54150391 C-190.50174042 655.72965637 -190.87628357 654.91780884 -191.26217651 654.08135986 C-192.04687703 652.38035323 -192.83148132 650.6793022 -193.61599731 648.97821045 C-197.57672334 640.39048861 -201.53791981 631.80313027 -205.53955078 623.234375 C-211.20608003 611.09549136 -216.75446597 598.91946277 -222.12158203 586.64501953 C-226.44394419 576.7655616 -230.9857657 567.00858099 -235.67236328 557.296875 C-236.7142157 555.13680833 -237.75587755 552.97664974 -238.79736328 550.81640625 C-239.31903076 549.73496338 -239.84069824 548.65352051 -240.37817383 547.53930664 C-243.74006509 540.54174071 -246.95715439 533.49783597 -250.06274414 526.38354492 C-252.18559956 521.55364815 -254.46617271 516.82994996 -256.85986328 512.12890625 C-261.88613459 502.2495986 -266.28764917 492.10253038 -270.67236328 481.92578125 C-273.30394877 475.83096786 -275.97319141 469.7986544 -278.98486328 463.87890625 C-288.04822237 446.01518734 -296.14232713 427.63765075 -304.28222656 409.33764648 C-307.75506713 401.5397863 -311.32619956 393.79203603 -314.95251465 386.06478882 C-316.17756541 383.45106977 -317.39643749 380.83448866 -318.61543274 378.21794128 C-320.17351585 374.87456582 -321.73501462 371.53279021 -323.29736328 368.19140625 C-323.62479523 367.49102234 -323.95222717 366.79063843 -324.2895813 366.06903076 C-327.86937234 358.41846604 -331.4632224 350.78128532 -335.29736328 343.25390625 C-347.55964117 318.98318743 -356.12701317 293.94132364 -360.85986328 267.12890625 C-361.09318359 265.85660156 -361.32650391 264.58429688 -361.56689453 263.2734375 C-365.57937179 239.57384159 -365.51969631 213.86809497 -361.85986328 190.12890625 C-361.73095703 189.27458008 -361.60205078 188.42025391 -361.46923828 187.54003906 C-353.83011779 138.3632009 -332.12048406 94.42097353 -299.45361328 57.1171875 C-297.7929184 55.20388692 -296.18240421 53.24510841 -294.64111328 51.234375 C-294.05330078 50.53957031 -293.46548828 49.84476562 -292.85986328 49.12890625 C-292.19986328 49.12890625 -291.53986328 49.12890625 -290.85986328 49.12890625 C-290.36486328 47.64390625 -290.36486328 47.64390625 -289.85986328 46.12890625 C-288.39892578 44.65625 -288.39892578 44.65625 -286.48486328 43.06640625 C-283.23621705 40.32589625 -280.13081414 37.49111471 -277.04736328 34.56640625 C-265.16938268 23.77422443 -252.02348165 14.61139563 -237.81933594 7.16894531 C-235.84826382 6.12274954 -233.90640133 5.03432503 -231.96533203 3.93359375 C-208.15019967 -9.39496817 -181.70468171 -18.1908601 -154.85986328 -22.87109375 C-153.59505127 -23.09756592 -153.59505127 -23.09756592 -152.3046875 -23.32861328 C-101.53133028 -32.04632066 -45.50649185 -24.31798726 0 0 Z " fill="#EBE9E9" transform="translate(651.85986328125,150.87109375)"/>
<path d="M0 0 C2.39434205 1.26299768 4.81009838 2.47808988 7.22998047 3.69140625 C27.87099785 14.12534773 45.38781649 27.17361271 62.14013672 43.12890625 C63.03853271 43.98427979 63.03853271 43.98427979 63.95507812 44.85693359 C72.84798239 53.38723686 80.83744391 62.20661587 88.14013672 72.12890625 C88.55569824 72.68368652 88.97125977 73.2384668 89.39941406 73.81005859 C130.3554414 128.5618004 146.57058003 195.88802273 137.68798828 263.43457031 C133.55795004 291.28472122 124.77247466 318.8196402 111.14257812 343.49755859 C108.17153776 348.92097849 105.64728686 354.50060623 103.19287109 360.17407227 C99.99403222 367.56314721 96.56315641 374.84194084 93.14013672 382.12890625 C92.54836924 383.39011233 91.95665302 384.65134246 91.36499023 385.91259766 C90.17762491 388.44308739 88.98972997 390.97332771 87.80151367 393.50341797 C81.01667534 407.95262331 74.28652872 422.4258701 67.61376953 436.92724609 C50.65516435 473.77203542 50.65516435 473.77203542 44.96435547 485.69140625 C40.83644869 494.34455375 36.80820969 503.01626998 33.03857422 511.83203125 C28.25133945 522.82148135 22.97025274 533.59426346 17.71588135 544.36557007 C12.0036509 556.08651542 6.44211629 567.85420787 1.17724609 579.78417969 C-5.52783988 594.94323 -12.43506984 610.00123928 -19.60693359 624.94482422 C-28.58387098 643.65260905 -37.350765 662.45681705 -45.83349609 681.39404297 C-49.86801969 690.39628328 -54.02290161 699.33728393 -58.31689453 708.21875 C-63.4265427 718.80262261 -68.37279127 729.43486278 -73.10986328 740.19140625 C-76.53563058 747.96837231 -80.02755675 755.6424872 -83.90673828 763.203125 C-88.89119461 773.07158837 -93.36140839 783.20666057 -97.99108887 793.24560547 C-99.44863652 796.40522962 -100.90832478 799.56386473 -102.36767578 802.72265625 C-105.20110724 808.85682737 -108.03148733 814.99240254 -110.85986328 821.12890625 C-111.84986328 821.12890625 -112.83986328 821.12890625 -113.85986328 821.12890625 C-118.40171613 811.4561548 -122.86796503 801.75048988 -127.30932617 792.03125 C-129.99362654 786.16832802 -132.69975444 780.31627867 -135.43408203 774.4765625 C-135.73688583 773.82986099 -136.03968964 773.18315948 -136.35166931 772.51686096 C-137.57654138 769.90161225 -138.80168383 767.2864904 -140.02719116 764.67153931 C-143.35304334 757.57040151 -146.64718453 750.46248401 -149.73486328 743.25390625 C-152.19153759 737.53599679 -154.90707813 732.01264454 -157.74023438 726.47705078 C-160.52607444 720.96015215 -162.96481234 715.3247859 -165.35986328 709.62890625 C-168.57837699 701.97811439 -172.02934993 694.53303665 -175.84033203 687.16015625 C-178.36745146 682.20239211 -180.65217778 677.132042 -182.96835327 672.07330322 C-184.61436883 668.48331811 -186.27120043 664.89831773 -187.92626953 661.3125 C-188.65994154 659.72218155 -189.3935835 658.13184923 -190.12719727 656.54150391 C-190.50174042 655.72965637 -190.87628357 654.91780884 -191.26217651 654.08135986 C-192.04687703 652.38035323 -192.83148132 650.6793022 -193.61599731 648.97821045 C-197.57672334 640.39048861 -201.53791981 631.80313027 -205.53955078 623.234375 C-211.20608003 611.09549136 -216.75446597 598.91946277 -222.12158203 586.64501953 C-226.44394419 576.7655616 -230.9857657 567.00858099 -235.67236328 557.296875 C-236.7142157 555.13680833 -237.75587755 552.97664974 -238.79736328 550.81640625 C-239.31903076 549.73496338 -239.84069824 548.65352051 -240.37817383 547.53930664 C-243.74006509 540.54174071 -246.95715439 533.49783597 -250.06274414 526.38354492 C-252.18559956 521.55364815 -254.46617271 516.82994996 -256.85986328 512.12890625 C-261.88613459 502.2495986 -266.28764917 492.10253038 -270.67236328 481.92578125 C-273.30394877 475.83096786 -275.97319141 469.7986544 -278.98486328 463.87890625 C-288.04822237 446.01518734 -296.14232713 427.63765075 -304.28222656 409.33764648 C-307.75506713 401.5397863 -311.32619956 393.79203603 -314.95251465 386.06478882 C-316.17756541 383.45106977 -317.39643749 380.83448866 -318.61543274 378.21794128 C-320.17351585 374.87456582 -321.73501462 371.53279021 -323.29736328 368.19140625 C-323.62479523 367.49102234 -323.95222717 366.79063843 -324.2895813 366.06903076 C-327.86937234 358.41846604 -331.4632224 350.78128532 -335.29736328 343.25390625 C-347.55964117 318.98318743 -356.12701317 293.94132364 -360.85986328 267.12890625 C-361.09318359 265.85660156 -361.32650391 264.58429688 -361.56689453 263.2734375 C-365.57937179 239.57384159 -365.51969631 213.86809497 -361.85986328 190.12890625 C-361.73095703 189.27458008 -361.60205078 188.42025391 -361.46923828 187.54003906 C-353.83011779 138.3632009 -332.12048406 94.42097353 -299.45361328 57.1171875 C-297.7929184 55.20388692 -296.18240421 53.24510841 -294.64111328 51.234375 C-294.05330078 50.53957031 -293.46548828 49.84476562 -292.85986328 49.12890625 C-292.19986328 49.12890625 -291.53986328 49.12890625 -290.85986328 49.12890625 C-290.36486328 47.64390625 -290.36486328 47.64390625 -289.85986328 46.12890625 C-288.39892578 44.65625 -288.39892578 44.65625 -286.48486328 43.06640625 C-283.23621705 40.32589625 -280.13081414 37.49111471 -277.04736328 34.56640625 C-265.16938268 23.77422443 -252.02348165 14.61139563 -237.81933594 7.16894531 C-235.84826382 6.12274954 -233.90640133 5.03432503 -231.96533203 3.93359375 C-208.15019967 -9.39496817 -181.70468171 -18.1908601 -154.85986328 -22.87109375 C-153.59505127 -23.09756592 -153.59505127 -23.09756592 -152.3046875 -23.32861328 C-101.53133028 -32.04632066 -45.50649185 -24.31798726 0 0 Z M-126.85986328 -2.87109375 C-131.98584639 -2.16134224 -137.1245654 -1.80095791 -142.29736328 -1.93359375 C-150.03942511 -2.01684173 -157.56661304 -0.6158645 -164.69604492 2.37231445 C-167.09293656 3.21040169 -169.37921492 3.61067757 -171.88720703 4.00390625 C-189.38641141 7.07724842 -205.59816178 14.25509218 -220.85986328 23.12890625 C-221.7006543 23.60908203 -222.54144531 24.08925781 -223.40771484 24.58398438 C-234.17146407 30.74732566 -244.29567417 37.22005756 -253.85986328 45.12890625 C-255.06296862 46.10419092 -256.26609433 47.07945046 -257.46923828 48.0546875 C-258.66328341 49.03613631 -259.85602678 50.01917132 -261.04736328 51.00390625 C-261.60093506 51.45644775 -262.15450684 51.90898926 -262.72485352 52.37524414 C-265.54608498 54.75206844 -267.39568488 56.74536444 -268.85986328 60.12890625 C-270.17519739 60.83041777 -271.5110392 61.4941655 -272.85986328 62.12890625 C-275.1105143 64.04557546 -275.1105143 64.04557546 -276.85986328 66.12890625 C-276.85986328 66.78890625 -276.85986328 67.44890625 -276.85986328 68.12890625 C-277.43994141 68.37769531 -278.02001953 68.62648438 -278.61767578 68.8828125 C-294.50474786 77.71203897 -306.21983125 102.3825827 -314.54199219 117.703125 C-315.77254233 119.96817618 -317.02222097 122.22143176 -318.27783203 124.47265625 C-321.79230659 130.83410357 -324.98275627 137.06809604 -326.85986328 144.12890625 C-327.89372602 147.81204226 -328.94022979 151.39232252 -330.35986328 154.94140625 C-331.82040277 158.73880893 -332.5968717 162.50591054 -333.32861328 166.5 C-333.87771139 169.21722813 -334.59336946 171.84034022 -335.35986328 174.50390625 C-336.69174346 179.26922629 -337.62228398 184.00585016 -338.35693359 188.89746094 C-338.66854853 190.89966253 -339.00487348 192.89839258 -339.38012695 194.88964844 C-341.004188 203.93462926 -341.16626594 212.79156139 -341.12060547 221.94824219 C-341.10990878 224.49308249 -341.12054726 227.03721257 -341.13330078 229.58203125 C-341.69834857 245.76903248 -341.69834857 245.76903248 -337.85986328 261.12890625 C-337.5399405 263.10370233 -337.25358505 265.08399389 -336.98486328 267.06640625 C-336.20431677 272.35548261 -335.07233911 277.36391407 -333.58251953 282.4921875 C-332.85408195 285.15000031 -332.30534141 287.79602282 -331.79736328 290.50390625 C-331.15215426 293.90887486 -330.33447679 296.96902015 -328.85986328 300.12890625 C-328.19986328 300.12890625 -327.53986328 300.12890625 -326.85986328 300.12890625 C-326.90111328 300.85078125 -326.94236328 301.57265625 -326.98486328 302.31640625 C-326.84890026 305.37557423 -326.04981544 307.32901882 -324.85986328 310.12890625 C-324.4911524 311.78810521 -324.14704654 313.45367055 -323.85986328 315.12890625 C-323.19986328 315.12890625 -322.53986328 315.12890625 -321.85986328 315.12890625 C-321.48861328 316.33546875 -321.48861328 316.33546875 -321.10986328 317.56640625 C-313.0440619 340.5539402 -297.37618888 366.03264753 -278.85986328 382.12890625 C-278.19986328 382.12890625 -277.53986328 382.12890625 -276.85986328 382.12890625 C-276.61236328 382.89203125 -276.36486328 383.65515625 -276.10986328 384.44140625 C-274.73855656 387.3897157 -273.62475538 388.48725157 -270.85986328 390.12890625 C-270.19986328 390.12890625 -269.53986328 390.12890625 -268.85986328 390.12890625 C-268.62267578 390.69738281 -268.38548828 391.26585937 -268.14111328 391.8515625 C-256.09446742 413.26374097 -215.67639827 433.38765728 -192.85986328 440.12890625 C-189.44006042 440.46968817 -189.44006042 440.46968817 -186.85986328 440.12890625 C-186.85986328 440.78890625 -186.85986328 441.44890625 -186.85986328 442.12890625 C-177.59853126 445.62104174 -177.59853126 445.62104174 -167.85986328 446.12890625 C-167.85986328 446.78890625 -167.85986328 447.44890625 -167.85986328 448.12890625 C-161.42957787 449.45278854 -155.43037988 450.37685027 -148.85986328 450.12890625 C-148.85986328 450.78890625 -148.85986328 451.44890625 -148.85986328 452.12890625 C-136.85091154 453.95735655 -125.11827187 454.48905016 -112.98486328 454.44140625 C-112.09365784 454.44058044 -111.20245239 454.43975464 -110.28424072 454.43890381 C-91.95154464 454.39994606 -73.39059699 453.97248415 -55.85986328 448.12890625 C-55.85986328 447.46890625 -55.85986328 446.80890625 -55.85986328 446.12890625 C-54.82861328 446.17015625 -53.79736328 446.21140625 -52.73486328 446.25390625 C-48.99156701 446.13315476 -46.32251781 445.48018607 -42.85986328 444.12890625 C-42.85986328 443.46890625 -42.85986328 442.80890625 -42.85986328 442.12890625 C-40.87986328 442.12890625 -38.89986328 442.12890625 -36.85986328 442.12890625 C-36.85986328 441.46890625 -36.85986328 440.80890625 -36.85986328 440.12890625 C-35.91111328 440.04640625 -34.96236328 439.96390625 -33.98486328 439.87890625 C-28.95097794 439.15832992 -24.49885119 437.1345651 -19.85986328 435.12890625 C-19.18568359 434.85304688 -18.51150391 434.5771875 -17.81689453 434.29296875 C5.01515291 424.66552902 27.90295294 410.09150257 45.14013672 392.12890625 C45.14013672 391.46890625 45.14013672 390.80890625 45.14013672 390.12890625 C45.90326172 389.88140625 46.66638672 389.63390625 47.45263672 389.37890625 C50.40094617 388.00759953 51.49848204 386.89379835 53.14013672 384.12890625 C53.14013672 383.46890625 53.14013672 382.80890625 53.14013672 382.12890625 C53.70861328 381.89171875 54.27708984 381.65453125 54.86279297 381.41015625 C73.67622125 370.82558596 88.09239151 340.11601074 96.14013672 321.12890625 C96.80680339 319.79557292 97.47347005 318.46223958 98.14013672 317.12890625 C99.03456885 315.15844517 99.90817684 313.17845065 100.76513672 311.19140625 C101.21115234 310.17175781 101.65716797 309.15210938 102.11669922 308.1015625 C103.11244794 305.20933052 103.35191078 303.15504608 103.14013672 300.12890625 C103.80013672 300.12890625 104.46013672 300.12890625 105.14013672 300.12890625 C107.38841724 295.63234521 107.30695944 292.05017659 107.14013672 287.12890625 C107.80013672 287.12890625 108.46013672 287.12890625 109.14013672 287.12890625 C109.26388672 286.22140625 109.38763672 285.31390625 109.51513672 284.37890625 C110.14013672 281.12890625 110.14013672 281.12890625 111.11669922 279.41796875 C112.580239 276.14455534 112.79037969 272.78386143 113.14013672 269.25390625 C113.52151957 265.44714037 113.90269488 261.82824665 115.14013672 258.18359375 C117.35508337 251.41762389 117.2855685 244.21784606 117.23779297 237.15625 C117.23637802 236.34773087 117.23496307 235.53921173 117.23350525 234.70619202 C117.22797086 232.15955683 117.21543132 229.61301422 117.20263672 227.06640625 C117.19761322 225.32487107 117.19305181 223.5833345 117.18896484 221.84179688 C117.17802305 217.60413177 117.16080497 213.36653462 117.14013672 209.12890625 C116.48013672 209.12890625 115.82013672 209.12890625 115.14013672 209.12890625 C115.14537354 208.53988525 115.15061035 207.95086426 115.15600586 207.34399414 C115.17703475 204.62647608 115.18987818 201.90897524 115.20263672 199.19140625 C115.21101563 198.26521484 115.21939453 197.33902344 115.22802734 196.38476562 C115.64588556 185.7597342 115.64588556 185.7597342 112.14013672 176.12890625 C111.58440446 174.45893083 111.090579 172.76780509 110.64013672 171.06640625 C110.25341797 169.60654297 110.25341797 169.60654297 109.85888672 168.1171875 C109.1904644 165.33814906 108.64611217 162.56628648 108.14013672 159.75390625 C107.4200074 155.93121978 106.18387074 153.44997404 104.14013672 150.12890625 C103.78763137 148.72166047 103.47960155 147.30294669 103.20263672 145.87890625 C99.69633233 128.3888567 87.64925436 109.33041657 77.14013672 95.12890625 C76.44791016 94.16726562 75.75568359 93.205625 75.04248047 92.21484375 C70.97917799 86.66811339 66.72001053 81.29196251 62.32763672 76.00390625 C61.87155029 75.44711182 61.41546387 74.89031738 60.94555664 74.31665039 C58.5414755 71.46692605 56.52400614 69.65735064 53.14013672 68.12890625 C52.45881221 66.46817776 51.79271545 64.80113925 51.14013672 63.12890625 C48.52354576 60.67542468 48.52354576 60.67542468 45.14013672 60.12890625 C44.77275391 59.26265625 44.77275391 59.26265625 44.39794922 58.37890625 C34.40230576 40.49850057 5.53695957 27.22141649 -11.92236328 18.37890625 C-12.58300781 18.04342773 -13.24365234 17.70794922 -13.92431641 17.36230469 C-16.77045777 15.96634012 -18.64609542 15.12890625 -21.85986328 15.12890625 C-21.85986328 14.46890625 -21.85986328 13.80890625 -21.85986328 13.12890625 C-22.71257812 12.96455078 -22.71257812 12.96455078 -23.58251953 12.796875 C-28.67014387 11.75217084 -33.11048987 10.28771235 -37.85986328 8.12890625 C-45.03682961 5.23293738 -52.40983177 3.20349225 -59.85986328 1.12890625 C-61.07029297 0.77183594 -62.28072266 0.41476563 -63.52783203 0.046875 C-70.35480983 -1.83394538 -77.02709797 -1.91319496 -84.07080078 -1.84375 C-95.01986328 -1.95109375 -95.01986328 -1.95109375 -98.85986328 -3.87109375 C-100.79544006 -3.96809221 -102.73435865 -4.00185576 -104.67236328 -4.00390625 C-106.40873047 -4.00583984 -106.40873047 -4.00583984 -108.18017578 -4.0078125 C-110.00162109 -4.00201172 -110.00162109 -4.00201172 -111.85986328 -3.99609375 C-113.07416016 -3.99996094 -114.28845703 -4.00382812 -115.53955078 -4.0078125 C-116.69712891 -4.00652344 -117.85470703 -4.00523437 -119.04736328 -4.00390625 C-120.11341797 -4.00277832 -121.17947266 -4.00165039 -122.27783203 -4.00048828 C-124.84668468 -4.04513573 -124.84668468 -4.04513573 -126.85986328 -2.87109375 Z " fill="#020202" transform="translate(651.85986328125,150.87109375)"/>
<path d="M0 0 C3.33389302 1.88994939 6.35908258 4.13556273 9.453125 6.390625 C30.20018164 20.30633372 55.71041806 24.96581306 80.26953125 20.34960938 C94.6140622 17.03610661 107.95113254 9.93923776 119.671875 1.171875 C127.02748589 -3.92959707 135.27995528 -3.71421219 143.91015625 -2.234375 C152.24572392 0.46866986 158.809464 7.13990417 165.38134766 12.69628906 C168.13832684 14.99250905 170.97607563 17.15711845 173.8359375 19.32421875 C178.89631403 23.18908133 183.88452125 27.13315794 188.8359375 31.13671875 C189.50689453 31.67619141 190.17785156 32.21566406 190.86914062 32.77148438 C202.6787628 42.36456798 212.10255573 53.8461319 214.3359375 69.32421875 C214.6395032 75.03009099 214.64230839 80.72866422 214.63671875 86.44140625 C214.64061363 88.10613103 214.6449499 89.77085484 214.64970398 91.43557739 C214.65713556 94.91362743 214.65689732 98.3915759 214.65161133 101.86962891 C214.64582175 106.29977341 214.66275019 110.72949915 214.685956 115.15957451 C214.7007752 118.59480164 214.70155396 122.02992982 214.69844627 125.46518326 C214.69895541 127.09725905 214.70411553 128.72934099 214.71425819 130.36138535 C214.81016441 147.94959398 211.30807927 163.00637165 198.73828125 176.078125 C185.60969176 188.35282249 169.24627354 192.49008874 152.24804688 196.61279297 C149.52651213 197.27766153 146.81376542 197.97006926 144.1015625 198.671875 C86.67826285 213.2911222 23.44788513 212.2222031 -33.6640625 196.32421875 C-34.72415527 196.03144043 -35.78424805 195.73866211 -36.87646484 195.43701172 C-62.16421629 188.34432569 -62.16421629 188.34432569 -71.6640625 181.32421875 C-73.2728125 180.17953125 -73.2728125 180.17953125 -74.9140625 179.01171875 C-85.01947301 169.13597666 -92.84898145 156.10486441 -93.93821716 141.69812012 C-93.94885696 140.40877563 -93.95949677 139.11943115 -93.97045898 137.79101562 C-93.9787825 137.07281647 -93.98710602 136.35461731 -93.99568176 135.61465454 C-94.01962813 133.25736943 -94.02853796 130.90036235 -94.03515625 128.54296875 C-94.04413923 126.88496833 -94.05326133 125.22696866 -94.06251526 123.56896973 C-94.07896977 120.09576459 -94.08669802 116.62265537 -94.08959961 113.14941406 C-94.09495801 108.73955123 -94.13254693 104.33061547 -94.17834377 99.92101288 C-94.2083782 96.49419026 -94.21532894 93.06758293 -94.21632576 89.64064026 C-94.2204815 88.01741829 -94.23272431 86.39419281 -94.25384331 84.77110291 C-94.46035521 67.51677424 -90.3805551 52.46042219 -78.2890625 39.44921875 C-72.98169161 34.41848689 -67.0124827 30.15012597 -61.17578125 25.76171875 C-56.85024793 22.49506411 -52.65683686 19.08609722 -48.4765625 15.63671875 C-43.4157625 11.48362674 -38.28929535 7.46360953 -32.9765625 3.63671875 C-32.41235596 3.22655518 -31.84814941 2.8163916 -31.2668457 2.39379883 C-21.83953311 -4.2850095 -10.52778852 -4.85504811 0 0 Z " fill="#010101" transform="translate(482.6640625,352.67578125)"/>
<path d="M0 0 C0.64904297 0.20898926 1.29808594 0.41797852 1.96679688 0.63330078 C23.66390076 7.86747503 39.03294446 23.07468268 49.5625 42.94921875 C58.81462093 62.25200677 60.390606 88.15797706 53.5546875 108.4765625 C45.58246617 130.68373828 31.20418916 147.91635748 9.8125 158.3125 C-11.36126341 167.99543667 -35.49826836 169.20036549 -57.63671875 161.78125 C-80.63423778 152.67332167 -98.20120149 134.53723658 -108 112 C-110.85672204 104.1481426 -112.71522503 96.34960221 -113 88 C-113.03109863 87.3714209 -113.06219727 86.7428418 -113.09423828 86.09521484 C-114.16643135 62.7601989 -107.31566961 41.82860331 -92 24 C-91.32582031 23.21367187 -90.65164063 22.42734375 -89.95703125 21.6171875 C-79.76524543 10.64141816 -66.99346856 3.84452245 -53 -1 C-51.51693359 -1.54140625 -51.51693359 -1.54140625 -50.00390625 -2.09375 C-34.28335465 -6.83649118 -15.42948686 -5.038909 0 0 Z " fill="#000000" transform="translate(571,183)"/>
<path d="M0 0 C6.59701917 6.02086029 11.64497441 14.7596016 13.1640625 23.5703125 C13.30717205 27.90959857 13.28152397 32.23076359 13.1640625 36.5703125 C11.1840625 36.5703125 9.2040625 36.5703125 7.1640625 36.5703125 C7.16019531 35.26320313 7.16019531 35.26320313 7.15625 33.9296875 C6.85989306 24.80189371 4.98785476 18.31439075 0.1640625 10.5703125 C-0.2175 9.94253906 -0.5990625 9.31476563 -0.9921875 8.66796875 C-4.80323188 3.31889575 -11.06360319 0.34817368 -17.35546875 -0.94921875 C-24.34473401 -1.42250758 -29.54699369 1.12175355 -34.8359375 5.5703125 C-41.77344931 13.50098389 -44.21122228 21.99474929 -44.3984375 32.3203125 C-44.46421724 34.09652782 -44.53451114 35.87258186 -44.609375 37.6484375 C-44.64514648 38.49728516 -44.68091797 39.34613281 -44.71777344 40.22070312 C-45.3583912 52.95893738 -49.18461758 64.13514032 -58.75 72.94921875 C-66.1273125 78.6825234 -73.62625157 80.32155576 -82.8359375 79.5703125 C-90.7338577 77.87584962 -98.2738171 72.63988067 -102.671875 65.86328125 C-107.68749275 55.98352413 -109.67794939 46.66615809 -108.8359375 35.5703125 C-106.8559375 35.5703125 -104.8759375 35.5703125 -102.8359375 35.5703125 C-102.73796875 36.68148437 -102.64 37.79265625 -102.5390625 38.9375 C-101.34264872 51.34697733 -100.10384397 60.53076753 -90.15234375 68.9765625 C-84.38189982 72.94678362 -78.67856728 73.59762421 -71.8359375 72.5703125 C-63.89225087 69.47477846 -58.29489966 64.09813688 -54.84375 56.33984375 C-52.2973144 49.29470527 -51.79806693 42.14673311 -51.59692383 34.7199707 C-51.18720365 21.34076913 -48.79438586 10.62044805 -39.140625 0.85546875 C-27.67760633 -9.65658201 -12.10389212 -9.42558408 0 0 Z " fill="#E1DFDF" transform="translate(583.8359375,438.4296875)"/>
<path d="M0 0 C0 1.65 0 3.3 0 5 C-6.93 6.485 -6.93 6.485 -14 8 C-16.73702522 21.6851261 -13.89850755 36.16186307 -7.98828125 48.6796875 C-7 51 -7 51 -7 54 C-6.41734375 54.22042969 -5.8346875 54.44085938 -5.234375 54.66796875 C-2.31340374 56.409317 -1.10739848 58.47651348 0.75 61.3125 C5.10825439 67.47389117 8.94306468 71.18861294 16.4375 72.6875 C25.43404583 70.95132449 30.31062673 64.87698048 35.2734375 57.5859375 C35.84320313 56.73257813 36.41296875 55.87921875 37 55 C37.52851563 54.33484375 38.05703125 53.6696875 38.6015625 52.984375 C45.77506641 42.80521303 48.89463754 26.226713 48 14 C47.24624096 11.04777708 46.83163737 9.607735 44.375 7.8125 C40.96145514 6.64470834 37.51386025 5.81990072 34 5 C34 3.35 34 1.7 34 0 C47.3659703 1.98968034 47.3659703 1.98968034 51.75 7 C56.37874934 14.40599895 54.19895886 23.89226101 52.40478516 31.90869141 C52.18870605 32.82569824 51.97262695 33.74270508 51.75 34.6875 C51.54552246 35.56583496 51.34104492 36.44416992 51.13037109 37.34912109 C49.8474009 42.51300341 48.17783944 47.21251214 45.85766602 52.00317383 C44.99397511 54.01402722 44.5528616 55.84836357 44.1875 58 C42.28337921 66.32845877 34.65711406 73.11635172 28 78 C22.68433099 80.99610435 17.98725934 81.90260191 12 81 C1.27323992 77.70218616 -5.35045409 70.4465663 -11 61 C-11.73967347 58.85494695 -12.11533596 56.87814473 -12.4453125 54.63671875 C-13.21568816 50.97472178 -14.62851776 47.593593 -16 44.125 C-20.14652869 33.36761345 -22.33388952 22.61774744 -21 11 C-18.9496898 6.9166091 -16.93803109 4.37922711 -13 2 C-8.75412287 0.91241642 -4.39710125 0 0 0 Z " fill="#E2E0E0" transform="translate(462,390)"/>
<path d="M0 0 C1.32 0 2.64 0 4 0 C3.67 3.3 3.34 6.6 3 10 C4.32 10.66 5.64 11.32 7 12 C7.48372093 19.25581395 7.48372093 19.25581395 5.375 22.5 C2.23686002 24.48198314 0.65126535 24.67064058 -3 24 C-5.9375 21.9375 -5.9375 21.9375 -8 19 C-8 15.34825108 -7.75500768 13.06387446 -5.625 10.0625 C-4 9 -4 9 -1 9 C-1.33 8.34 -1.66 7.68 -2 7 C-6.23084903 8.68807908 -6.23084903 8.68807908 -9 12 C-9.59420843 17.87564294 -9.59420843 17.87564294 -7 23 C-2.84437903 25.77041398 -0.93332128 25.70476018 4 25 C7.31327526 22.45132672 8.8095103 20.39692449 9.375 16.25 C8.85917329 11.77950182 6.96005368 10.3300604 4 7 C4 6.01 4 5.02 4 4 C6.1875 4 6.1875 4 9 5 C11.91329601 8.29911088 13.72836395 11.69614697 14.625 16 C13.51433798 21.33117769 10.78812414 25.45351426 6.6875 29 C1.98116704 30.75119366 -2.15720024 30.83763625 -6.75 28.75 C-12.45762712 24.31073446 -12.45762712 24.31073446 -13.75 21.1875 C-14.30171234 16.36001705 -14.61246082 13.13742724 -12.25 8.75 C-10.23479941 6.28697706 -8.77940396 4.51603852 -6 3 C-3.25 2.8125 -3.25 2.8125 -1 3 C-0.67 2.01 -0.34 1.02 0 0 Z " fill="#DDDBDB" transform="translate(592,476)"/>
<path d="M0 0 C1.32 0 2.64 0 4 0 C3.67 3.3 3.34 6.6 3 10 C4.32 10.66 5.64 11.32 7 12 C7.48372093 19.25581395 7.48372093 19.25581395 5.375 22.5 C2.23686002 24.48198314 0.65126535 24.67064058 -3 24 C-5.9375 21.9375 -5.9375 21.9375 -8 19 C-8 15.34825108 -7.75500768 13.06387446 -5.625 10.0625 C-4 9 -4 9 -1 9 C-0.67 6.03 -0.34 3.06 0 0 Z " fill="#E3E1E1" transform="translate(592,476)"/>
<path d="M0 0 C0.99 0.66 1.98 1.32 3 2 C2.34 2 1.68 2 1 2 C2.44228313 4.47248536 3.80365407 6.77456578 5.6875 8.9375 C7.54277853 11.85293769 7.47649913 13.59643479 7 17 C3.84210526 22.57894737 3.84210526 22.57894737 1 24 C-6.08958838 24.5811138 -6.08958838 24.5811138 -9.9375 22.125 C-13.06919086 18.89840942 -13.40078085 16.55074473 -13.3515625 12.0390625 C-12.75016178 8.55093831 -10.73338019 7.05003514 -8 5 C-5.6875 4.1875 -5.6875 4.1875 -4 4 C-4 4.99 -4 5.98 -4 7 C-4.804375 7.4125 -5.60875 7.825 -6.4375 8.25 C-9.37110949 9.83736927 -9.37110949 9.83736927 -9.875 13.5 C-10.20339489 16.97295906 -10.20339489 16.97295906 -9 20 C-7.56589632 20.24954005 -6.12739928 20.47392642 -4.6875 20.6875 C-3.88699219 20.81511719 -3.08648438 20.94273437 -2.26171875 21.07421875 C0.04867988 21.20308963 0.04867988 21.20308963 1.76953125 19.7734375 C4.00519702 16.55123985 3.3646766 13.82910431 3 10 C2.01 9.34 1.02 8.68 0 8 C-0.40843923 5.28796348 -0.13336867 2.7562858 0 0 Z " fill="#101010" transform="translate(595,478)"/>
<path d="M0 0 C3.0625 0.3125 3.0625 0.3125 4.9375 1.5 C6.46909584 3.96757108 6.49072025 5.45769831 6.0625 8.3125 C4.875 10.125 4.875 10.125 3.0625 11.3125 C0.20769831 11.74072025 -1.28242892 11.71909584 -3.75 10.1875 C-5.46599028 7.47804166 -5.271228 5.44954316 -4.9375 2.3125 C-2.9375 0.3125 -2.9375 0.3125 0 0 Z " fill="#E2E0E0" transform="translate(487.9375,386.6875)"/>
<path d="M0 0 C3 0.25 3 0.25 5 2.25 C5.333728 5.38704316 5.52849028 7.41554166 3.8125 10.125 C1.31963619 11.67229478 -0.11967335 11.75405716 -3 11.25 C-4.875 9.5625 -4.875 9.5625 -6 7.25 C-5.67747519 2.7346526 -4.81889451 0.40157454 0 0 Z " fill="#E2E1E1" transform="translate(469,386.75)"/>
<path d="M0 0 C1.485 0.99 1.485 0.99 3 2 C2.34 2 1.68 2 1 2 C2.44228313 4.47248536 3.80365407 6.77456578 5.6875 8.9375 C7.54277853 11.85293769 7.47649913 13.59643479 7 17 C3.87692308 22.70769231 3.87692308 22.70769231 0 24 C0.57344937 21.13275314 0.8614515 20.1385485 3 18 C3.35513379 16.09178939 3.35513379 16.09178939 3.3125 14 C3.32925781 13.29875 3.34601562 12.5975 3.36328125 11.875 C3.24339844 11.25625 3.12351562 10.6375 3 10 C2.01 9.34 1.02 8.68 0 8 C-0.40843923 5.28796348 -0.13336867 2.7562858 0 0 Z " fill="#2F2F2F" transform="translate(595,478)"/>
<path d="M0 0 C0.66 0.33 1.32 0.66 2 1 C-5.26 8.26 -12.52 15.52 -20 23 C-20.66 22.67 -21.32 22.34 -22 22 C-21.04882866 20.8274869 -20.08882991 19.66212985 -19.125 18.5 C-18.59132813 17.8503125 -18.05765625 17.200625 -17.5078125 16.53125 C-17.01023437 16.0259375 -16.51265625 15.520625 -16 15 C-15.34 15 -14.68 15 -14 15 C-13.67 14.01 -13.34 13.02 -13 12 C-11.328125 10.3515625 -11.328125 10.3515625 -9.25 8.625 C-6.00331159 5.87465784 -2.96094821 3.05347784 0 0 Z " fill="#606060" transform="translate(375,185)"/>
<path d="M0 0 C0.33 0.99 0.66 1.98 1 3 C0.21625 3.45375 -0.5675 3.9075 -1.375 4.375 C-4.03698031 5.88428742 -4.03698031 5.88428742 -6 8 C-6.66 8 -7.32 8 -8 8 C-6.9802693 4.22699642 -6.34127338 3.19793856 -2.875 1.1875 C-1.92625 0.795625 -0.9775 0.40375 0 0 Z " fill="#1F1F1F" transform="translate(590,482)"/>
<path d="M0 0 C0.66 0.33 1.32 0.66 2 1 C1.24172908 2.17487036 0.46792245 3.33972592 -0.3125 4.5 C-0.74175781 5.1496875 -1.17101562 5.799375 -1.61328125 6.46875 C-2.07089844 6.9740625 -2.52851563 7.479375 -3 8 C-3.99 8 -4.98 8 -6 8 C-4.55746343 4.63408134 -2.66735273 2.48952921 0 0 Z " fill="#B7B6B6" transform="translate(372,220)"/>
<path d="M0 0 C0.66 0 1.32 0 2 0 C1.75 1.875 1.75 1.875 1 4 C-1.0625 5.25 -1.0625 5.25 -3 6 C-2.42655063 3.13275314 -2.1385485 2.1385485 0 0 Z " fill="#252424" transform="translate(598,496)"/>
</svg>
