<?xml version="1.0" encoding="UTF-8"?>
<svg version="1.1" xmlns="http://www.w3.org/2000/svg" width="1080" height="1080">
<path d="M0 0 C1.08571289 0.44182617 1.08571289 0.44182617 2.19335938 0.89257812 C25.96648945 10.67654188 48.13068439 23.55842355 67.41088867 40.59912109 C68.55620325 41.60877158 69.70826129 42.61079074 70.86450195 43.60791016 C83.94867248 54.91971656 95.53889848 67.14016945 105.66748047 81.16357422 C106.81986365 82.75174319 108.00292449 84.31756747 109.19140625 85.87890625 C139.84866355 126.44558005 154.44151953 175.70044621 157 226 C157.04141113 226.8132373 157.08282227 227.62647461 157.12548828 228.46435547 C158.90557799 270.26515559 148.02571744 311.85738346 129.07275391 348.87036133 C125.97281104 354.94869548 123.1725643 361.14738813 120.40844727 367.38452148 C115.86196373 377.63203215 111.05659035 387.7601156 106.28125 397.90234375 C105.33667776 399.90971476 104.39217475 401.9171183 103.44775391 403.92456055 C102.81660788 405.26505487 102.18477329 406.60522521 101.55224609 407.94506836 C97.72282911 416.05912699 93.9807302 424.19869533 90.44787598 432.44700623 C88.50001932 436.96723311 86.36378679 441.3670974 84.125 445.75 C80.21530492 453.45437406 76.66964888 461.29743142 73.15234375 469.1875 C69.49971706 477.37970468 65.67679258 485.49172049 61.8125 493.5859375 C58.24114174 501.07478352 54.71117872 508.56305137 51.4375 516.1875 C49.16763397 521.46882617 46.73391486 526.62785176 44.125 531.75 C40.67318366 538.52802073 37.51965316 545.41280283 34.4284668 552.36181641 C31.84547924 558.15651957 29.17480776 563.90169905 26.4375 569.625 C23.47940606 575.81132761 20.62978089 582.03304312 17.875 588.3125 C15.56546025 593.57305559 13.1688251 598.75222308 10.5625 603.875 C7.86389547 609.1874995 5.36129127 614.5570043 2.9375 620 C-0.83171684 628.45675495 -4.7035241 636.86298004 -8.625 645.25 C-8.91970184 645.88047241 -9.21440369 646.51094482 -9.51803589 647.16052246 C-12.94283438 654.48515156 -16.37732667 661.80523243 -19.8125 669.125 C-21.08342351 671.83329103 -22.35424885 674.54162809 -23.625 677.25 C-24.09715942 678.25619385 -24.09715942 678.25619385 -24.57885742 679.28271484 C-29.78416701 690.3779265 -34.93632684 701.4968854 -40.0625 712.62890625 C-43.06865835 719.15527603 -46.09583043 725.67178625 -49.125 732.1875 C-59.53869016 754.59735285 -69.90323646 777.03044238 -80.1875 799.5 C-81.79081106 803.00039278 -83.39488313 806.50043492 -85 810 C-85.35658691 810.77778809 -85.71317383 811.55557617 -86.08056641 812.35693359 C-87.05044253 814.4686497 -88.02435259 816.57844538 -89 818.6875 C-89.515625 819.80511719 -90.03125 820.92273438 -90.5625 822.07421875 C-91.91031162 824.8174549 -93.38388873 827.40748816 -95 830 C-97.7658646 827.57986847 -99.01944861 825.15728225 -100.5 821.8125 C-101.0259375 820.64203125 -101.551875 819.4715625 -102.09375 818.265625 C-102.3928125 817.59466797 -102.691875 816.92371094 -103 816.23242188 C-104.97213528 811.82978393 -106.98971838 807.44781461 -109 803.0625 C-109.46180664 802.05292236 -109.92361328 801.04334473 -110.39941406 800.00317383 C-113.10193739 794.10417099 -115.82676685 788.21618713 -118.578125 782.33984375 C-118.88068207 781.69363571 -119.18323914 781.04742767 -119.4949646 780.38163757 C-120.71868519 777.76867436 -121.94265031 775.15582593 -123.16705322 772.54318237 C-126.49299826 765.44186141 -129.78724036 758.33376661 -132.875 751.125 C-135.33167431 745.40709054 -138.04721485 739.88373829 -140.88037109 734.34814453 C-143.6662118 728.83124464 -146.10492462 723.19586878 -148.5 717.5 C-151.14793547 711.20620887 -153.88727795 705.01571553 -157 698.9375 C-161.68771042 689.78336239 -165.82732545 680.39734319 -170 671 C-171.55838786 667.49815 -173.12191631 663.99863772 -174.6875 660.5 C-175.03159912 659.72430664 -175.37569824 658.94861328 -175.73022461 658.14941406 C-178.15022943 652.74005891 -180.76596246 647.44796984 -183.43139648 642.15576172 C-186.11618005 636.75443684 -188.65250138 631.28535187 -191.1875 625.8125 C-191.46491028 625.21482819 -191.74232056 624.61715637 -192.02813721 624.00137329 C-196.56143817 614.22828919 -200.94269841 604.39382065 -205.25878906 594.52270508 C-209.58224218 584.64109295 -214.12485323 574.88184892 -218.8125 565.16796875 C-219.85435242 563.00790208 -220.89601427 560.84774349 -221.9375 558.6875 C-222.45916748 557.60605713 -222.98083496 556.52461426 -223.51831055 555.41040039 C-226.88047391 548.41226811 -230.09964546 541.3684949 -233.20288086 534.25244141 C-235.31721074 529.4380886 -237.60270473 524.74163513 -240 520.0625 C-242.9445977 514.31047976 -245.5419814 508.47555902 -248 502.5 C-250.72071266 495.88810487 -253.67157886 489.48363314 -256.93188477 483.12231445 C-260.02888694 477.04334806 -262.81178342 470.84086565 -265.58496094 464.60888672 C-268.04304461 459.09647222 -270.57854646 453.62995553 -273.1875 448.1875 C-277.90705481 438.32321485 -282.38717577 428.35175578 -286.86401367 418.37573242 C-290.03321423 411.31928369 -293.25120755 404.28930446 -296.53443909 397.28514099 C-298.93710207 392.15352117 -301.26136331 386.990191 -303.5625 381.8125 C-306.86087462 374.44253095 -310.31288311 367.18466479 -314 360 C-316.71644405 354.69078741 -319.38909324 349.36197146 -322 344 C-322.32758301 343.32791504 -322.65516602 342.65583008 -322.99267578 341.96337891 C-333.23325729 320.67092916 -339.90018701 298.2261522 -344 275 C-344.23332031 273.72769531 -344.46664063 272.45539063 -344.70703125 271.14453125 C-348.67287246 247.72038998 -348.59735717 222.45882212 -345 199 C-344.80299636 197.57427246 -344.60638964 196.14849001 -344.41015625 194.72265625 C-339.60012477 161.5622549 -327.53015509 130.33477172 -310.11181641 101.8359375 C-308.06554107 98.45693211 -306.118558 95.01817837 -304.15625 91.58984375 C-303.7746875 91.06519531 -303.393125 90.54054688 -303 90 C-302.34 90 -301.68 90 -301 90 C-300.77054687 89.3090625 -300.54109375 88.618125 -300.3046875 87.90625 C-298.71371624 84.36229006 -296.53780455 81.50862644 -294.125 78.5 C-293.64466309 77.89486572 -293.16432617 77.28973145 -292.66943359 76.66625977 C-285.95006959 68.31312978 -278.58833821 60.56420994 -271 53 C-270.20722656 52.17242187 -269.41445313 51.34484375 -268.59765625 50.4921875 C-254.72690499 36.17261378 -238.3261756 24.56816615 -220.85986328 15.02246094 C-218.9681653 13.98249886 -217.09187858 12.91772211 -215.21484375 11.8515625 C-191.14382803 -1.5970933 -164.20443591 -10.59968941 -137 -15 C-136.2589502 -15.13390137 -135.51790039 -15.26780273 -134.75439453 -15.40576172 C-89.87913242 -23.39576933 -41.96688349 -17.28930589 0 0 Z " fill="#EAE8E8" transform="translate(635,143)"/>
<path d="M0 0 C1.08571289 0.44182617 1.08571289 0.44182617 2.19335938 0.89257812 C25.96648945 10.67654188 48.13068439 23.55842355 67.41088867 40.59912109 C68.55620325 41.60877158 69.70826129 42.61079074 70.86450195 43.60791016 C83.94867248 54.91971656 95.53889848 67.14016945 105.66748047 81.16357422 C106.81986365 82.75174319 108.00292449 84.31756747 109.19140625 85.87890625 C139.84866355 126.44558005 154.44151953 175.70044621 157 226 C157.04141113 226.8132373 157.08282227 227.62647461 157.12548828 228.46435547 C158.90557799 270.26515559 148.02571744 311.85738346 129.07275391 348.87036133 C125.97281104 354.94869548 123.1725643 361.14738813 120.40844727 367.38452148 C115.86196373 377.63203215 111.05659035 387.7601156 106.28125 397.90234375 C105.33667776 399.90971476 104.39217475 401.9171183 103.44775391 403.92456055 C102.81660788 405.26505487 102.18477329 406.60522521 101.55224609 407.94506836 C97.72282911 416.05912699 93.9807302 424.19869533 90.44787598 432.44700623 C88.50001932 436.96723311 86.36378679 441.3670974 84.125 445.75 C80.21530492 453.45437406 76.66964888 461.29743142 73.15234375 469.1875 C69.49971706 477.37970468 65.67679258 485.49172049 61.8125 493.5859375 C58.24114174 501.07478352 54.71117872 508.56305137 51.4375 516.1875 C49.16763397 521.46882617 46.73391486 526.62785176 44.125 531.75 C40.67318366 538.52802073 37.51965316 545.41280283 34.4284668 552.36181641 C31.84547924 558.15651957 29.17480776 563.90169905 26.4375 569.625 C23.47940606 575.81132761 20.62978089 582.03304312 17.875 588.3125 C15.56546025 593.57305559 13.1688251 598.75222308 10.5625 603.875 C7.86389547 609.1874995 5.36129127 614.5570043 2.9375 620 C-0.83171684 628.45675495 -4.7035241 636.86298004 -8.625 645.25 C-8.91970184 645.88047241 -9.21440369 646.51094482 -9.51803589 647.16052246 C-12.94283438 654.48515156 -16.37732667 661.80523243 -19.8125 669.125 C-21.08342351 671.83329103 -22.35424885 674.54162809 -23.625 677.25 C-24.09715942 678.25619385 -24.09715942 678.25619385 -24.57885742 679.28271484 C-29.78416701 690.3779265 -34.93632684 701.4968854 -40.0625 712.62890625 C-43.06865835 719.15527603 -46.09583043 725.67178625 -49.125 732.1875 C-59.53869016 754.59735285 -69.90323646 777.03044238 -80.1875 799.5 C-81.79081106 803.00039278 -83.39488313 806.50043492 -85 810 C-85.35658691 810.77778809 -85.71317383 811.55557617 -86.08056641 812.35693359 C-87.05044253 814.4686497 -88.02435259 816.57844538 -89 818.6875 C-89.515625 819.80511719 -90.03125 820.92273438 -90.5625 822.07421875 C-91.91031162 824.8174549 -93.38388873 827.40748816 -95 830 C-97.7658646 827.57986847 -99.01944861 825.15728225 -100.5 821.8125 C-101.0259375 820.64203125 -101.551875 819.4715625 -102.09375 818.265625 C-102.3928125 817.59466797 -102.691875 816.92371094 -103 816.23242188 C-104.97213528 811.82978393 -106.98971838 807.44781461 -109 803.0625 C-109.46180664 802.05292236 -109.92361328 801.04334473 -110.39941406 800.00317383 C-113.10193739 794.10417099 -115.82676685 788.21618713 -118.578125 782.33984375 C-118.88068207 781.69363571 -119.18323914 781.04742767 -119.4949646 780.38163757 C-120.71868519 777.76867436 -121.94265031 775.15582593 -123.16705322 772.54318237 C-126.49299826 765.44186141 -129.78724036 758.33376661 -132.875 751.125 C-135.33167431 745.40709054 -138.04721485 739.88373829 -140.88037109 734.34814453 C-143.6662118 728.83124464 -146.10492462 723.19586878 -148.5 717.5 C-151.14793547 711.20620887 -153.88727795 705.01571553 -157 698.9375 C-161.68771042 689.78336239 -165.82732545 680.39734319 -170 671 C-171.55838786 667.49815 -173.12191631 663.99863772 -174.6875 660.5 C-175.03159912 659.72430664 -175.37569824 658.94861328 -175.73022461 658.14941406 C-178.15022943 652.74005891 -180.76596246 647.44796984 -183.43139648 642.15576172 C-186.11618005 636.75443684 -188.65250138 631.28535187 -191.1875 625.8125 C-191.46491028 625.21482819 -191.74232056 624.61715637 -192.02813721 624.00137329 C-196.56143817 614.22828919 -200.94269841 604.39382065 -205.25878906 594.52270508 C-209.58224218 584.64109295 -214.12485323 574.88184892 -218.8125 565.16796875 C-219.85435242 563.00790208 -220.89601427 560.84774349 -221.9375 558.6875 C-222.45916748 557.60605713 -222.98083496 556.52461426 -223.51831055 555.41040039 C-226.88047391 548.41226811 -230.09964546 541.3684949 -233.20288086 534.25244141 C-235.31721074 529.4380886 -237.60270473 524.74163513 -240 520.0625 C-242.9445977 514.31047976 -245.5419814 508.47555902 -248 502.5 C-250.72071266 495.88810487 -253.67157886 489.48363314 -256.93188477 483.12231445 C-260.02888694 477.04334806 -262.81178342 470.84086565 -265.58496094 464.60888672 C-268.04304461 459.09647222 -270.57854646 453.62995553 -273.1875 448.1875 C-277.90705481 438.32321485 -282.38717577 428.35175578 -286.86401367 418.37573242 C-290.03321423 411.31928369 -293.25120755 404.28930446 -296.53443909 397.28514099 C-298.93710207 392.15352117 -301.26136331 386.990191 -303.5625 381.8125 C-306.86087462 374.44253095 -310.31288311 367.18466479 -314 360 C-316.71644405 354.69078741 -319.38909324 349.36197146 -322 344 C-322.32758301 343.32791504 -322.65516602 342.65583008 -322.99267578 341.96337891 C-333.23325729 320.67092916 -339.90018701 298.2261522 -344 275 C-344.23332031 273.72769531 -344.46664063 272.45539063 -344.70703125 271.14453125 C-348.67287246 247.72038998 -348.59735717 222.45882212 -345 199 C-344.80299636 197.57427246 -344.60638964 196.14849001 -344.41015625 194.72265625 C-339.60012477 161.5622549 -327.53015509 130.33477172 -310.11181641 101.8359375 C-308.06554107 98.45693211 -306.118558 95.01817837 -304.15625 91.58984375 C-303.7746875 91.06519531 -303.393125 90.54054688 -303 90 C-302.34 90 -301.68 90 -301 90 C-300.77054687 89.3090625 -300.54109375 88.618125 -300.3046875 87.90625 C-298.71371624 84.36229006 -296.53780455 81.50862644 -294.125 78.5 C-293.64466309 77.89486572 -293.16432617 77.28973145 -292.66943359 76.66625977 C-285.95006959 68.31312978 -278.58833821 60.56420994 -271 53 C-270.20722656 52.17242187 -269.41445313 51.34484375 -268.59765625 50.4921875 C-254.72690499 36.17261378 -238.3261756 24.56816615 -220.85986328 15.02246094 C-218.9681653 13.98249886 -217.09187858 12.91772211 -215.21484375 11.8515625 C-191.14382803 -1.5970933 -164.20443591 -10.59968941 -137 -15 C-136.2589502 -15.13390137 -135.51790039 -15.26780273 -134.75439453 -15.40576172 C-89.87913242 -23.39576933 -41.96688349 -17.28930589 0 0 Z M-110 5 C-115.12598311 5.70975151 -120.26470212 6.07013584 -125.4375 5.9375 C-133.17956183 5.85425202 -140.70674976 7.25522925 -147.83618164 10.2434082 C-150.23307328 11.08149544 -152.51935164 11.48177132 -155.02734375 11.875 C-172.52654813 14.94834217 -188.7382985 22.12618593 -204 31 C-204.84079102 31.48017578 -205.68158203 31.96035156 -206.54785156 32.45507812 C-217.31160079 38.61841941 -227.43581089 45.09115131 -237 53 C-238.20310534 53.97528467 -239.40623105 54.95054421 -240.609375 55.92578125 C-241.80342013 56.90723006 -242.9961635 57.89026507 -244.1875 58.875 C-244.74107178 59.3275415 -245.29464355 59.78008301 -245.86499023 60.24633789 C-248.68622169 62.62316219 -250.53582159 64.61645819 -252 68 C-253.3153341 68.70151152 -254.65117592 69.36525925 -256 70 C-258.25065102 71.91666921 -258.25065102 71.91666921 -260 74 C-260 74.66 -260 75.32 -260 76 C-260.58007812 76.24878906 -261.16015625 76.49757813 -261.7578125 76.75390625 C-277.64488457 85.58313272 -289.35996797 110.25367645 -297.68212891 125.57421875 C-298.91267905 127.83926993 -300.16235769 130.09252551 -301.41796875 132.34375 C-304.93244331 138.70519732 -308.12289299 144.93918979 -310 152 C-311.03386274 155.68313601 -312.08036651 159.26341627 -313.5 162.8125 C-315.00993837 166.7049542 -315.78542943 170.59285411 -316.47265625 174.703125 C-317 177 -317 177 -317.99609375 178.8046875 C-319.47177141 182.03165577 -319.65401091 185.38307303 -320 188.875 C-320.37943141 192.6622876 -320.74466537 196.26391813 -322 199.8828125 C-325.01670554 209.28644929 -324.18622664 219.81716429 -324.18530273 229.59301758 C-324.18748043 232.16439601 -324.20566475 234.7353382 -324.22460938 237.30664062 C-324.84207961 253.56353864 -324.84207961 253.56353864 -321 269 C-320.68007722 270.97479608 -320.39372177 272.95508764 -320.125 274.9375 C-319.34445349 280.22657636 -318.21247583 285.23500782 -316.72265625 290.36328125 C-315.99421866 293.02109406 -315.44547813 295.66711657 -314.9375 298.375 C-314.29229098 301.77996861 -313.47461351 304.8401139 -312 308 C-311.34 308 -310.68 308 -310 308 C-310.04125 308.721875 -310.0825 309.44375 -310.125 310.1875 C-309.98903698 313.24666798 -309.18995216 315.20011257 -308 318 C-307.63128912 319.65919896 -307.28718326 321.3247643 -307 323 C-306.34 323 -305.68 323 -305 323 C-304.62875 324.2065625 -304.62875 324.2065625 -304.25 325.4375 C-296.18419861 348.42503395 -280.5163256 373.90374128 -262 390 C-261.34 390 -260.68 390 -260 390 C-259.7525 390.763125 -259.505 391.52625 -259.25 392.3125 C-257.87869328 395.26080945 -256.7648921 396.35834532 -254 398 C-253.34 398 -252.68 398 -252 398 C-251.7628125 398.56847656 -251.525625 399.13695312 -251.28125 399.72265625 C-239.23460414 421.13483472 -198.81653499 441.25875103 -176 448 C-172.58019714 448.34078192 -172.58019714 448.34078192 -170 448 C-170 448.66 -170 449.32 -170 450 C-160.73866798 453.49213549 -160.73866798 453.49213549 -151 454 C-151 454.66 -151 455.32 -151 456 C-144.56971459 457.32388229 -138.5705166 458.24794402 -132 458 C-132 458.66 -132 459.32 -132 460 C-119.99104825 461.8284503 -108.25840859 462.36014391 -96.125 462.3125 C-95.23379456 462.31167419 -94.34258911 462.31084839 -93.42437744 462.30999756 C-75.09168136 462.27103981 -56.53073371 461.8435779 -39 456 C-39 455.34 -39 454.68 -39 454 C-37.96875 454.04125 -36.9375 454.0825 -35.875 454.125 C-32.13170373 454.00424851 -29.46265453 453.35127982 -26 452 C-26 451.34 -26 450.68 -26 450 C-24.02 450 -22.04 450 -20 450 C-20 449.34 -20 448.68 -20 448 C-16.7 447.67 -13.4 447.34 -10 447 C-10 446.34 -10 445.68 -10 445 C-9.29875 444.896875 -8.5975 444.79375 -7.875 444.6875 C-4.57831418 443.89916209 -2.02665195 442.53302608 1 441 C2.86852425 440.16709177 4.73708084 439.33425526 6.60620117 438.50268555 C26.8708148 429.34854747 46.54271414 416.11974097 62 400 C62 399.34 62 398.68 62 398 C62.763125 397.7525 63.52625 397.505 64.3125 397.25 C67.26080945 395.87869328 68.35834532 394.7648921 70 392 C70 391.34 70 390.68 70 390 C70.56847656 389.7628125 71.13695312 389.525625 71.72265625 389.28125 C90.53608453 378.69667971 104.9522548 347.98710449 113 329 C113.66666667 327.66666667 114.33333333 326.33333333 115 325 C115.89443213 323.02953892 116.76804012 321.0495444 117.625 319.0625 C118.07101562 318.04285156 118.51703125 317.02320313 118.9765625 315.97265625 C119.97231122 313.08042427 120.21177406 311.02613983 120 308 C120.66 308 121.32 308 122 308 C124.24828052 303.50343896 124.16682272 299.92127034 124 295 C124.66 295 125.32 295 126 295 C126.12375 294.0925 126.2475 293.185 126.375 292.25 C127 289 127 289 127.9765625 287.2890625 C129.44010228 284.01564909 129.65024297 280.65495518 130 277.125 C130.38138285 273.31823412 130.76255817 269.6993404 132 266.0546875 C134.21494666 259.28871764 134.14543178 252.08893981 134.09765625 245.02734375 C134.0962413 244.21882462 134.09482635 243.41030548 134.09336853 242.57728577 C134.08783414 240.03065058 134.0752946 237.48410797 134.0625 234.9375 C134.0574765 233.19596482 134.05291509 231.45442825 134.04882812 229.71289062 C134.03788634 225.47522552 134.02066826 221.23762837 134 217 C133.34 217 132.68 217 132 217 C132.00523682 216.410979 132.01047363 215.82195801 132.01586914 215.21508789 C132.03689803 212.49756983 132.04974146 209.78006899 132.0625 207.0625 C132.07087891 206.13630859 132.07925781 205.21011719 132.08789062 204.25585938 C132.50574884 193.63082795 132.50574884 193.63082795 129 184 C128.44426775 182.33002458 127.95044228 180.63889884 127.5 178.9375 C127.11328125 177.47763672 127.11328125 177.47763672 126.71875 175.98828125 C126.05032768 173.20924281 125.50597545 170.43738023 125 167.625 C124.27987068 163.80231353 123.04373403 161.32106779 121 158 C120.64749465 156.59275422 120.33946484 155.17404044 120.0625 153.75 C116.55619561 136.25995045 104.50911764 117.20151032 94 103 C93.30777344 102.03835937 92.61554688 101.07671875 91.90234375 100.0859375 C87.83904128 94.53920714 83.57987381 89.16305626 79.1875 83.875 C78.73141357 83.31820557 78.27532715 82.76141113 77.80541992 82.18774414 C75.40133878 79.3380198 73.38386942 77.52844439 70 76 C69.31867549 74.33927151 68.65257873 72.672233 68 71 C65.38340904 68.54651843 65.38340904 68.54651843 62 68 C61.63261719 67.13375 61.63261719 67.13375 61.2578125 66.25 C51.26216905 48.36959432 22.39682285 35.09251024 4.9375 26.25 C4.27685547 25.91452148 3.61621094 25.57904297 2.93554688 25.23339844 C0.08940552 23.83743387 -1.78623214 23 -5 23 C-5 22.34 -5 21.68 -5 21 C-5.85271484 20.83564453 -5.85271484 20.83564453 -6.72265625 20.66796875 C-11.81028059 19.62326459 -16.25062658 18.1588061 -21 16 C-28.17696633 13.10403113 -35.54996849 11.074586 -43 9 C-44.21042969 8.64292969 -45.42085937 8.28585938 -46.66796875 7.91796875 C-53.49494655 6.03714837 -60.16723469 5.95789879 -67.2109375 6.02734375 C-78.16 5.92 -78.16 5.92 -82 4 C-83.93557678 3.90300154 -85.87449537 3.86923799 -87.8125 3.8671875 C-89.54886719 3.86525391 -89.54886719 3.86525391 -91.3203125 3.86328125 C-93.14175781 3.86908203 -93.14175781 3.86908203 -95 3.875 C-96.21429687 3.87113281 -97.42859375 3.86726563 -98.6796875 3.86328125 C-99.83726562 3.86457031 -100.99484375 3.86585938 -102.1875 3.8671875 C-103.25355469 3.86831543 -104.31960938 3.86944336 -105.41796875 3.87060547 C-107.9868214 3.82595802 -107.9868214 3.82595802 -110 5 Z " fill="#020202" transform="translate(635,143)"/>
<path d="M0 0 C3.07403953 2.48420281 4.45530261 4.6897701 6.3046875 8.15625 C9.49455429 13.5069943 15.23285833 16.07761944 21 18 C31.85192955 18.80238509 40.99592895 18.15977517 49.8125 11.25 C52.29361139 8.96452356 53.60942181 6.86701648 55.05859375 3.84375 C56.61323672 1.30662867 57.36077592 0.2046303 60.22387695 -0.71191406 C62.93924729 -0.93621706 65.52964449 -0.89498388 68.25 -0.75 C69.15363281 -0.74742187 70.05726563 -0.74484375 70.98828125 -0.7421875 C80.01387746 -0.50843105 87.62679533 2.48194977 94 9 C99.87345445 17.59529919 100.15178603 25.36388459 100.17700195 35.5222168 C100.18357315 36.6758522 100.19014435 37.82948761 100.19691467 39.01808167 C100.21659348 42.82846141 100.22829798 46.63880185 100.23828125 50.44921875 C100.24235678 51.75389414 100.2464323 53.05856953 100.25063133 54.40278053 C100.26965873 60.59697001 100.2838946 66.79114776 100.2922433 72.9853608 C100.30200538 80.10826486 100.32830794 87.23085733 100.36874419 94.3536517 C100.39901473 99.87746829 100.41372249 105.4011961 100.41702431 110.92509395 C100.41936241 114.21583927 100.43017026 117.50617693 100.45348549 120.7968502 C100.47792798 124.47508692 100.47690201 128.15251686 100.4699707 131.83081055 C100.48918579 133.44048203 100.48918579 133.44048203 100.50878906 135.08267212 C100.44542372 144.35547019 98.43123647 153.60279363 91.8203125 160.49609375 C86.53678389 164.86124078 81.6845676 167.12855157 74.81542969 167.05297852 C73.91395203 167.04532974 73.01247437 167.03768097 72.0836792 167.02980042 C71.39606506 167.01996628 70.70845093 167.01013214 70 167 C70.00999275 168.85922592 70.00999275 168.85922592 70.02018738 170.75601196 C70.08101061 182.43873448 70.12597855 194.12142485 70.15543652 205.80426979 C70.17109027 211.81049831 70.19232357 217.81659897 70.22631836 223.82275391 C70.25892168 229.61936067 70.2768552 235.41584447 70.28463173 241.21253586 C70.29017345 243.42371939 70.30099504 245.63489621 70.31719017 247.84602737 C70.33897699 250.94388609 70.34196635 254.04123712 70.34057617 257.13916016 C70.351362 258.05266235 70.36214783 258.96616455 70.3732605 259.90734863 C70.3442917 265.87576958 69.47424114 270.19625943 65.38671875 274.828125 C64.82597656 275.29734375 64.26523437 275.7665625 63.6875 276.25 C63.13449219 276.72953125 62.58148437 277.2090625 62.01171875 277.703125 C55.9974666 281.58027396 49.65837081 281.32113619 42.7578125 281.3359375 C41.67547333 281.3425943 40.59313416 281.3492511 39.47799683 281.35610962 C37.19351902 281.36621274 34.90901184 281.37092737 32.62451172 281.37060547 C29.14370741 281.37497651 25.66417383 281.4113168 22.18359375 281.44921875 C19.95833764 281.45508792 17.73307555 281.45905664 15.5078125 281.4609375 C14.47423615 281.47530853 13.44065979 281.48967957 12.37576294 281.50448608 C5.4194135 281.46085582 -0.28205781 280.45162357 -5.52096558 275.58798218 C-10.92890462 269.49529023 -11.28855823 264.1092804 -11.22705078 256.34448242 C-11.22734283 255.3781488 -11.22763489 254.41181519 -11.22793579 253.41619873 C-11.22654492 250.2291967 -11.21099498 247.04242983 -11.1953125 243.85546875 C-11.19158151 241.64301176 -11.18873494 239.43055311 -11.18673706 237.21809387 C-11.17910739 231.40002873 -11.15946452 225.58206372 -11.1373291 219.76403809 C-11.11685639 213.82512771 -11.10773229 207.88620113 -11.09765625 201.94726562 C-11.07621808 190.29813313 -11.04209008 178.6490749 -11 167 C-11.75866867 167.00983414 -12.51733734 167.01966827 -13.29899597 167.02980042 C-14.29240494 167.03744919 -15.2858139 167.04509796 -16.30932617 167.05297852 C-17.29486984 167.06281265 -18.28041351 167.07264679 -19.29582214 167.08277893 C-25.030514 166.90723143 -29.59777292 164.08801172 -33.8515625 160.390625 C-40.95554135 152.7617216 -41.44288797 144.43767745 -41.40405273 134.46875 C-41.41091599 133.2319751 -41.41777924 131.9952002 -41.42485046 130.72094727 C-41.43995557 127.34890281 -41.44162949 123.97741397 -41.43590808 120.6053772 C-41.43280491 117.78237814 -41.43892102 114.95942847 -41.44494683 112.13643646 C-41.45896293 105.47372785 -41.45745459 98.81114754 -41.44604492 92.1484375 C-41.4345607 85.29093681 -41.4486508 78.43382707 -41.4754414 71.57637787 C-41.49763855 65.67207855 -41.50422695 59.7679016 -41.49836498 53.86356354 C-41.49500445 50.3444125 -41.49735001 46.82551214 -41.51461601 43.30639648 C-41.53303661 39.38119317 -41.51885672 35.45646655 -41.50170898 31.53125 C-41.51137695 30.37568604 -41.52104492 29.22012207 -41.53100586 28.02954102 C-41.4550811 19.71879325 -39.9087757 13.33122316 -33.8125 7.25 C-33.30332031 6.71890625 -32.79414063 6.1878125 -32.26953125 5.640625 C-23.11198457 -0.97928827 -10.94681715 -2.71889493 0 0 Z " fill="#000000" transform="translate(508,312)"/>
<path d="M0 0 C2.869592 1.98919619 4.36421434 3.87018602 6.328125 6.73046875 C9.59189906 11.16096578 14.17515806 12.5299463 19.44140625 13.40625 C26.11696702 13.82412548 31.60099088 11.91893593 37 8 C38.0136657 6.5866156 38.99315954 5.1481145 39.9375 3.6875 C41.75577054 1.38638728 43.09068433 0.19243242 45.99121094 -0.42138672 C57.03964359 -1.52436448 66.37607512 -0.03195427 75.875 5.75 C80.30615442 10.44181056 83.11903553 16.70675799 83.13371277 23.179245 C83.14011024 24.45545464 83.14011024 24.45545464 83.14663696 25.75744629 C83.14595718 27.153078 83.14595718 27.153078 83.14526367 28.5769043 C83.14862228 29.55935623 83.1519809 30.54180817 83.15544128 31.55403137 C83.16496067 34.81077328 83.16689513 38.06746379 83.16796875 41.32421875 C83.17118149 43.58763144 83.17454557 45.85104392 83.17805481 48.11445618 C83.18404914 52.86496461 83.18589448 57.61545485 83.18530273 62.3659668 C83.18520129 68.44433946 83.19883409 74.52259484 83.21607494 80.60093975 C83.22721283 85.27904289 83.22922136 89.95711789 83.22869301 94.63523293 C83.22987117 96.87544978 83.23428374 99.11566741 83.24202538 101.3558712 C83.25185782 104.49603764 83.24893389 107.63595227 83.24291992 110.77612305 C83.24853943 111.69642303 83.25415894 112.61672302 83.25994873 113.56491089 C83.2176387 122.28925996 81.7865914 130.16544322 76 137 C73.72194854 138.76197115 71.65623009 139.76675032 69 141 C67.7625 141.61875 67.7625 141.61875 66.5 142.25 C63.28429112 143.21471266 60.34109551 143.04683779 57 143 C57.02331642 144.58947449 57.02331642 144.58947449 57.04710388 146.21105957 C57.18923408 156.21535616 57.29404793 166.21944694 57.3626852 176.22452545 C57.39915974 181.36788634 57.44860388 186.51042983 57.52807617 191.65332031 C57.60434304 196.62007129 57.64603374 201.58603796 57.6641407 206.55332947 C57.67703784 208.44478192 57.70222408 210.33619322 57.7401104 212.22731018 C58.06072709 228.89979387 58.06072709 228.89979387 53.89477539 234.03710938 C47.514519 239.55708894 41.31777819 240.46072307 33.19140625 240.43359375 C32.26585434 240.4388356 31.34030243 240.44407745 30.38670349 240.44947815 C28.43774413 240.45587464 26.48874604 240.45459225 24.53979492 240.44604492 C21.57465191 240.43753488 18.61143753 240.46632957 15.64648438 240.49804688 C13.74479224 240.49965925 11.84309672 240.49908066 9.94140625 240.49609375 C9.0640834 240.50732773 8.18676056 240.51856171 7.28285217 240.53013611 C1.44409934 240.46475061 -3.16868722 239.41039401 -8 236 C-13.8130725 228.69639609 -13.34770476 221.4492018 -13.45996094 212.58911133 C-13.48633051 211.0074191 -13.52698773 209.4258905 -13.58300781 207.8449707 C-14.00085526 195.88723404 -12.12457921 188.32362783 -6 178 C-4.99284722 174.97854166 -4.87193815 172.96145648 -4.86628723 169.80245972 C-4.86202225 168.72591629 -4.85775726 167.64937286 -4.85336304 166.54020691 C-4.85381622 165.35888687 -4.85426941 164.17756683 -4.85473633 162.96044922 C-4.85137772 161.71625717 -4.8480191 160.47206512 -4.84455872 159.19017029 C-4.83667653 155.77454469 -4.83338045 152.35897988 -4.83274293 148.94334936 C-4.83203202 146.80700896 -4.82989684 144.67067491 -4.82724571 142.53433609 C-4.81798914 135.07399339 -4.81391086 127.61366856 -4.81469727 120.15332031 C-4.81529686 113.21255728 -4.80476919 106.27187227 -4.7889536 99.33112895 C-4.77584417 93.36409449 -4.77051485 87.3970854 -4.77115268 81.43003666 C-4.77140684 77.87004616 -4.76860158 74.31012487 -4.75797462 70.75014877 C-4.74642465 66.7720414 -4.75106126 62.79403934 -4.75708008 58.81591797 C-4.74865082 57.06215599 -4.74865082 57.06215599 -4.74005127 55.27296448 C-4.78853131 42.63468917 -7.39976338 31.96064692 -16 22.25 C-21.06353267 17.50796146 -27.75582004 14.849286 -34 12 C-33.43009732 8.62442258 -32.46477066 7.09314438 -29.875 4.875 C-29.31554687 4.37742187 -28.75609375 3.87984375 -28.1796875 3.3671875 C-20.59815037 -1.38825693 -8.64590743 -1.82284716 0 0 Z " fill="#020202" transform="translate(627,287)"/>
<path d="M0 0 C3.2043952 2.24060538 4.9588669 4.40083779 7.203125 7.57421875 C9.88383499 11.19317724 12.64543308 12.2868243 17 13 C23.77604551 13.933373 29.1566003 12.51970859 35 9 C37.52229154 6.75796308 39.56997612 4.58737598 41.55859375 1.87109375 C45.26728564 -0.97124772 48.70625059 -0.5460179 53.25 -0.4375 C54.07113281 -0.44458984 54.89226562 -0.45167969 55.73828125 -0.45898438 C64.24245243 -0.37138198 70.92086471 1.92086471 77 8 C77 8.99 77 9.98 77 11 C76.23816406 11.27972656 75.47632813 11.55945313 74.69140625 11.84765625 C63.34419692 16.25337673 54.04249069 22.29309697 48.78125 33.625 C46.66336317 38.82895049 44.87789258 43.44211592 44.85955811 49.10142517 C44.85384796 50.15680481 44.84813782 51.21218445 44.84225464 52.29954529 C44.84113678 53.45745071 44.84001892 54.61535614 44.83886719 55.80834961 C44.83390228 57.02821564 44.82893738 58.24808167 44.82382202 59.50491333 C44.81170848 62.85462414 44.80425277 66.20427246 44.79981136 69.55399776 C44.79687712 71.65082933 44.79277143 73.74765549 44.78830719 75.84448433 C44.77462722 82.41618255 44.76496564 88.98786831 44.7611053 95.55957979 C44.75663713 103.12334646 44.73914941 110.68693129 44.7101047 118.25064272 C44.6883974 124.10902008 44.67839606 129.96734666 44.67706418 135.82576376 C44.67602167 139.31826463 44.67023454 142.8105947 44.65224457 146.3030529 C44.63250727 150.21112624 44.63708866 154.11897792 44.64355469 158.02709961 C44.6343399 159.16678696 44.62512512 160.3064743 44.6156311 161.48069763 C44.66393772 170.8551518 45.78261321 180.53261564 51 188.5625 C51.495 189.34753906 51.99 190.13257813 52.5 190.94140625 C53.85735162 193.00699784 53.85735162 193.00699784 55.56445312 194.20410156 C58.644735 198.05759705 57.5162746 204.24484627 57.50097656 209.03149414 C57.50001079 211.16367493 57.54148172 213.29217334 57.5859375 215.42382812 C57.65276727 222.99388452 57.48550753 229.31283366 52 235 C47.74546328 238.31853864 44.30972067 240.10985573 38.91503906 240.16113281 C38.09698792 240.17074036 37.27893677 240.1803479 36.43609619 240.19024658 C35.11421295 240.1966214 35.11421295 240.1966214 33.765625 240.203125 C32.39854401 240.21167511 32.39854401 240.21167511 31.00384521 240.22039795 C29.07386433 240.22984509 27.14386734 240.2363808 25.21386719 240.24023438 C22.27510028 240.2499173 19.33703961 240.28093395 16.3984375 240.3125 C14.52083747 240.31903266 12.64323246 240.3242821 10.765625 240.328125 C9.89246643 240.3404718 9.01930786 240.3528186 8.11968994 240.36553955 C1.27778189 240.34082036 -3.4039494 239.13453049 -8.8125 234.6875 C-13.03538004 229.49939023 -13.28875761 224.17490543 -13.22705078 217.69970703 C-13.22734283 216.88928452 -13.22763489 216.078862 -13.22793579 215.24388123 C-13.22654937 212.58174704 -13.21102074 209.91989742 -13.1953125 207.2578125 C-13.19157992 205.40550896 -13.18873411 203.55320344 -13.18673706 201.70089722 C-13.17911988 196.83799743 -13.15948787 191.97521809 -13.1373291 187.11236572 C-13.11682937 182.14523955 -13.10772653 177.17809383 -13.09765625 172.2109375 C-13.07624015 162.47390556 -13.04212737 152.73696282 -13 143 C-14.66373657 143.0148645 -14.66373657 143.0148645 -16.36108398 143.0300293 C-22.3049443 142.98097899 -26.36018974 141.10371845 -31.25 137.8125 C-36.48829413 132.45515373 -39.11085634 126.11234833 -39.14044189 118.62457275 C-39.14615204 117.75556335 -39.15186218 116.88655396 -39.15774536 115.99121094 C-39.15886322 115.04568359 -39.15998108 114.10015625 -39.16113281 113.12597656 C-39.16609772 112.12387146 -39.17106262 111.12176636 -39.17617798 110.08929443 C-39.19078622 106.7730643 -39.19759969 103.45688202 -39.203125 100.140625 C-39.20887791 97.83380126 -39.21463562 95.52697753 -39.22039795 93.22015381 C-39.23090438 88.38146746 -39.23674928 83.54279771 -39.24023438 78.70410156 C-39.24571583 72.51248826 -39.26973815 66.32109522 -39.29820633 60.12955093 C-39.31685687 55.36309169 -39.32203962 50.59668522 -39.32357025 45.83019257 C-39.32659225 43.54810127 -39.33460542 41.2660108 -39.34775543 38.98395538 C-39.36486474 35.78633513 -39.36292345 32.58924938 -39.35644531 29.39160156 C-39.3656601 28.45417114 -39.37487488 27.51674072 -39.3843689 26.55090332 C-39.33822612 19.25734136 -37.95372732 13.90268059 -33.8125 7.75 C-25.10806821 -0.76099997 -11.62491156 -2.40277715 0 0 Z " fill="#010101" transform="translate(407,287)"/>
<path d="M0 0 C5.42935523 3.74589072 10.05339067 7.77619364 13.91015625 13.1328125 C14.3484375 13.71289062 14.78671875 14.29296875 15.23828125 14.890625 C22.71384208 25.65363125 24.31406036 38.38401152 22.91015625 51.1328125 C20.49474206 64.25322802 13.50323206 75.77048032 2.7734375 83.71484375 C-9.36861198 91.64229754 -23.14931138 95.37349361 -37.50390625 92.43359375 C-51.85088008 88.45205651 -62.97762392 80.52978767 -70.62109375 67.76171875 C-77.18023313 56.02155704 -78.91743051 42.86829349 -75.8984375 29.73046875 C-71.8162112 16.61607026 -62.85385477 5.26361303 -51.08984375 -1.8671875 C-34.9131901 -10.23149398 -15.51128884 -9.37344635 0 0 Z " fill="#010101" transform="translate(564.08984375,212.8671875)"/>
<path d="M0 0 C10.46485672 7.05529127 16.34167788 16.60202846 19.3125 28.8125 C20.70449182 43.63883152 16.94168896 54.26130457 7.79296875 65.71484375 C0.9853756 73.2843573 -9.77430056 78.34596507 -19.87109375 79.02734375 C-32.38019636 79.36397191 -41.82492809 76.70543291 -51.6875 68.8125 C-57.91435925 62.59516194 -62.05938883 56.19742612 -64.6875 47.8125 C-65.1825 46.3275 -65.1825 46.3275 -65.6875 44.8125 C-66.67081723 26.92369033 -66.67081723 26.92369033 -62.6875 18.8125 C-62.3471875 18.06871094 -62.006875 17.32492188 -61.65625 16.55859375 C-56.99036417 7.24258523 -50.01834673 1.21132774 -40.6875 -3.1875 C-39.5325 -3.785625 -38.3775 -4.38375 -37.1875 -5 C-25.02989155 -9.27225196 -10.70174209 -6.34284578 0 0 Z " fill="#010101" transform="translate(672.6875,198.1875)"/>
<path d="M0 0 C8.99518164 6.43662372 15.16952905 14.91919711 17.921875 25.69921875 C19.87122936 38.74039944 18.0667982 50.22649751 10.5625 61.1875 C3.61551353 70.12852888 -6.30314479 76.73561296 -17.6875 78.3125 C-30.83604857 79.46649495 -41.89296272 76.65610848 -52.31640625 68.44140625 C-59.92390746 61.61094799 -66.16683593 51.08113292 -66.9609375 40.7578125 C-67.38618002 28.05091399 -65.18635828 17.33917867 -56.6875 7.375 C-40.98219155 -8.82109934 -19.32551612 -11.77904972 0 0 Z " fill="#010101" transform="translate(452.6875,198.6875)"/>
<path d="M0 0 C1.06444336 0.0146228 1.06444336 0.0146228 2.15039062 0.02954102 C9.28582826 0.27160105 13.25166104 1.63110263 18.3046875 6.56640625 C25.13083534 13.93913177 27.17499752 19.32550183 27.125 29.4375 C26.03762819 38.35653784 21.19230066 44.37709278 14.31640625 49.88671875 C7.84041425 53.85587514 -0.87425749 53.58608044 -8.0859375 51.9296875 C-9.8125 51.25 -9.8125 51.25 -12.875 49.4375 C-13.76251953 48.94443359 -13.76251953 48.94443359 -14.66796875 48.44140625 C-20.72095642 44.71152685 -23.66772495 39.05932516 -25.875 32.4375 C-26.73373825 23.69063753 -26.0982559 16.68181472 -20.875 9.4375 C-15.08237236 3.07908082 -8.68386851 -0.13247623 0 0 Z " fill="#070707" transform="translate(564.875,339.5625)"/>
<path d="M0 0 C2.83203125 0.03255208 5.6640625 0.06510417 8.49609375 0.09765625 C8.49609375 3.72765625 8.49609375 7.35765625 8.49609375 11.09765625 C12.12609375 11.09765625 15.75609375 11.09765625 19.49609375 11.09765625 C19.59375 19.59375 19.59375 19.59375 19.49609375 22.09765625 C18.49609375 23.09765625 18.49609375 23.09765625 16.2109375 23.1953125 C13.63932292 23.16276042 11.06770833 23.13020833 8.49609375 23.09765625 C8.49609375 26.39765625 8.49609375 29.69765625 8.49609375 33.09765625 C4.53609375 33.09765625 0.57609375 33.09765625 -3.50390625 33.09765625 C-3.50390625 29.79765625 -3.50390625 26.49765625 -3.50390625 23.09765625 C-5.94796875 23.12859375 -5.94796875 23.12859375 -8.44140625 23.16015625 C-10.12889966 23.18151693 -11.81781659 23.16971136 -13.50390625 23.09765625 C-14.50390625 22.09765625 -14.50390625 22.09765625 -14.63671875 19.84765625 C-14.63414062 18.94015625 -14.6315625 18.03265625 -14.62890625 17.09765625 C-14.63148438 16.19015625 -14.6340625 15.28265625 -14.63671875 14.34765625 C-14.50390625 12.09765625 -14.50390625 12.09765625 -13.50390625 11.09765625 C-11.81781659 11.02560114 -10.12889966 11.01379557 -8.44140625 11.03515625 C-7.52230469 11.04417969 -6.60320313 11.05320312 -5.65625 11.0625 C-4.94597656 11.07410156 -4.23570312 11.08570313 -3.50390625 11.09765625 C-3.51550781 10.38738281 -3.52710938 9.67710937 -3.5390625 8.9453125 C-3.55259766 7.56666016 -3.55259766 7.56666016 -3.56640625 6.16015625 C-3.57800781 5.24363281 -3.58960938 4.32710938 -3.6015625 3.3828125 C-3.46380636 0.15931892 -3.23579438 0.12620103 0 0 Z " fill="#CCCBCB" transform="translate(562.50390625,348.90234375)"/>
<path d="M0 0 C1.06444336 0.0146228 1.06444336 0.0146228 2.15039062 0.02954102 C9.28582826 0.27160105 13.25166104 1.63110263 18.3046875 6.56640625 C25.13083534 13.93913177 27.17499752 19.32550183 27.125 29.4375 C26.03762819 38.35653784 21.19230066 44.37709278 14.31640625 49.88671875 C7.84041425 53.85587514 -0.87425749 53.58608044 -8.0859375 51.9296875 C-9.8125 51.25 -9.8125 51.25 -12.875 49.4375 C-13.76251953 48.94443359 -13.76251953 48.94443359 -14.66796875 48.44140625 C-20.72095642 44.71152685 -23.66772495 39.05932516 -25.875 32.4375 C-26.73373825 23.69063753 -26.0982559 16.68181472 -20.875 9.4375 C-15.08237236 3.07908082 -8.68386851 -0.13247623 0 0 Z M-20.125 14.5 C-23.48680037 20.14302204 -23.49255512 25.99344658 -22.875 32.4375 C-20.87518959 39.77438405 -15.28946498 44.67615057 -9.0078125 48.60546875 C-3.44957185 50.7737934 3.35453946 50.25011803 8.98828125 48.59765625 C16.37978422 45.2664326 20.56045917 40.41996756 23.5 32.9375 C25.05218659 24.24525508 24.03465307 18.83917395 19.125 11.4375 C13.98229407 5.48344483 7.89838349 2.85676483 0.1875 2 C-8.82124982 2.39014271 -14.98451453 7.50322811 -20.125 14.5 Z " fill="#D2D0D0" transform="translate(564.875,339.5625)"/>
<path d="M0 0 C1.98 0 3.96 0 6 0 C6.33 3.3 6.66 6.6 7 10 C10.3 10.33 13.6 10.66 17 11 C17 12.98 17 14.96 17 17 C13.37 17 9.74 17 6 17 C6 20.63 6 24.26 6 28 C4.02 28 2.04 28 0 28 C0 24.37 0 20.74 0 17 C-2.4440625 17.0309375 -2.4440625 17.0309375 -4.9375 17.0625 C-6.62499341 17.08386068 -8.31391034 17.07205511 -10 17 C-10.33 16.67 -10.66 16.34 -11 16 C-11 14.35 -11 12.7 -11 11 C-7.37 11 -3.74 11 0 11 C0 7.37 0 3.74 0 0 Z " fill="#0E0E0E" transform="translate(562,352)"/>
<path d="M0 0 C0.33 0 0.66 0 1 0 C1.33 1.98 1.66 3.96 2 6 C5.3 6.33 8.6 6.66 12 7 C12 10.63 12 14.26 12 18 C13.98 17.67 15.96 17.34 18 17 C18.33 14.03 18.66 11.06 19 8 C21.97 8 24.94 8 28 8 C28 8.33 28 8.66 28 9 C25.69 9 23.38 9 21 9 C21 12.63 21 16.26 21 20 C17.04 20 13.08 20 9 20 C9 16.7 9 13.4 9 10 C5.7 10 2.4 10 -1 10 C-1.09765625 3.06640625 -1.09765625 3.06640625 -1 1 C-0.67 0.67 -0.34 0.34 0 0 Z " fill="#D4D2D2" transform="translate(550,362)"/>
<path d="M0 0 C0.70817871 0.00757324 1.41635742 0.01514648 2.14599609 0.02294922 C9.77991598 0.26387228 14.12387435 2.46682312 19.6875 7.4375 C20.491875 8.4275 21.29625 9.4175 22.125 10.4375 C21.77734375 12.625 21.77734375 12.625 21.125 14.4375 C20.42375 13.695 19.7225 12.9525 19 12.1875 C12.9375699 6.38865382 6.84454002 2.92458745 -1.72265625 3.10546875 C-5.03402705 3.61629728 -7.81963559 4.9708693 -10.796875 6.46484375 C-12.81689888 7.41030606 -14.69970935 7.97206619 -16.875 8.4375 C-13.33713362 1.1652191 -7.65260575 -0.11405587 0 0 Z " fill="#DCDADA" transform="translate(564.875,339.5625)"/>
<path d="M0 0 C3 3 3 3 3.29296875 5.48046875 C3.1953125 7.98697917 3.09765625 10.49348958 3 13 C-0.96 13 -4.92 13 -9 13 C-9.33 15.64 -9.66 18.28 -10 21 C-10.33 21 -10.66 21 -11 21 C-11.02688151 19.35425434 -11.04634123 17.70838587 -11.0625 16.0625 C-11.07410156 15.14597656 -11.08570313 14.22945313 -11.09765625 13.28515625 C-11 11 -11 11 -10 10 C-6.66381769 9.85742811 -3.34024394 9.95771843 0 10 C0 6.7 0 3.4 0 0 Z " fill="#BDBCBC" transform="translate(559,350)"/>
<path d="M0 0 C0.66 0.33 1.32 0.66 2 1 C2 1.99 2 2.98 2 4 C1.34 4 0.68 4 0 4 C-2.08379509 7.84700632 -3.49686624 11.90054429 -5 16 C-5.66 15.67 -6.32 15.34 -7 15 C-7.66 15.99 -8.32 16.98 -9 18 C-8.68701233 10.64478969 -5.16033558 5.16033558 0 0 Z " fill="#C8C7C7" transform="translate(548,345)"/>
<path d="M0 0 C2.97 0 5.94 0 9 0 C9 0.33 9 0.66 9 1 C6.69 1 4.38 1 2 1 C2 4.63 2 8.26 2 12 C-1.63 12 -5.26 12 -9 12 C-9 11.01 -9 10.02 -9 9 C-6.36 9 -3.72 9 -1 9 C-0.67 6.03 -0.34 3.06 0 0 Z " fill="#E3E2E2" transform="translate(569,370)"/>
<path d="M0 0 C0.66 0.33 1.32 0.66 2 1 C-5.26 8.26 -12.52 15.52 -20 23 C-20.66 22.67 -21.32 22.34 -22 22 C-14.66666667 14.66666667 -7.33333333 7.33333333 0 0 Z " fill="#5D5D5D" transform="translate(375,185)"/>
<path d="M0 0 C0.75 1.5625 0.75 1.5625 1 4 C-1.13383106 8.42572369 -3.30791262 11.70349342 -7 15 C-7.99 14.67 -8.98 14.34 -10 14 C-8.8966898 12.41606974 -7.79231456 10.83288132 -6.6875 9.25 C-5.76517578 7.92742187 -5.76517578 7.92742187 -4.82421875 6.578125 C-3.25166935 4.35567831 -1.64631488 2.16807006 0 0 Z " fill="#D9D7D7" transform="translate(589,372)"/>
<path d="M0 0 C3.3 0 6.6 0 10 0 C10 3.3 10 6.6 10 10 C9.67 10 9.34 10 9 10 C9 7.36 9 4.72 9 2 C6.69 2.33 4.38 2.66 2 3 C1.67 4.98 1.34 6.96 1 9 C0.67 9 0.34 9 0 9 C0 6.03 0 3.06 0 0 Z " fill="#ECEAEA" transform="translate(560,350)"/>
<path d="M0 0 C-2 1.33333333 -4 2.66666667 -6 4 C-6.66 4.556875 -7.32 5.11375 -8 5.6875 C-8.66 6.120625 -9.32 6.55375 -10 7 C-10.99 6.67 -11.98 6.34 -13 6 C-5.46629213 -1.95224719 -5.46629213 -1.95224719 0 0 Z " fill="#D4D3D3" transform="translate(561,341)"/>
<path d="M0 0 C3.3 0 6.6 0 10 0 C10 0.99 10 1.98 10 3 C6.7 3 3.4 3 0 3 C0 2.01 0 1.02 0 0 Z " fill="#ECEAEA" transform="translate(560,379)"/>
<path d="M0 0 C0.66 0.33 1.32 0.66 2 1 C1.24172908 2.17487036 0.46792245 3.33972592 -0.3125 4.5 C-0.74175781 5.1496875 -1.17101562 5.799375 -1.61328125 6.46875 C-2.07089844 6.9740625 -2.52851563 7.479375 -3 8 C-3.99 8 -4.98 8 -6 8 C-4.55746343 4.63408134 -2.66735273 2.48952921 0 0 Z " fill="#B7B6B6" transform="translate(372,220)"/>
<path d="M0 0 C0.33 0 0.66 0 1 0 C0.67 2.97 0.34 5.94 0 9 C-0.66 8.67 -1.32 8.34 -2 8 C-1.125 1.125 -1.125 1.125 0 0 Z " fill="#E7E5E5" transform="translate(541,359)"/>
</svg>
